<?xml version="1.0" standalone="no"?>
<!DOCTYPE svg PUBLIC "-//W3C//DTD SVG 1.1//EN" "http://www.w3.org/Graphics/SVG/1.1/DTD/svg11.dtd" >
<svg xmlns="http://www.w3.org/2000/svg">
<metadata>Generated by IcoMoon</metadata>
<defs>
<font id="icofonts" horiz-adv-x="1024">
<font-face units-per-em="1024" ascent="960" descent="-64" />
<missing-glyph horiz-adv-x="1024" />
<glyph unicode="&#x20;" horiz-adv-x="512" d="" />
<glyph unicode="&#xe900;" glyph-name="icon--line" d="M512 874.667c231.68 0 420.181-184.619 426.496-414.72l0.171-11.947v-42.667c0-92.715-64.981-170.667-149.333-170.667-50.048 0-93.269 27.435-120.149 69.12-39.128-42.545-95.060-69.11-157.197-69.11-117.821 0-213.333 95.513-213.333 213.333s95.513 213.333 213.333 213.333c114.568 0 208.042-90.311 213.116-203.627l0.016-0.457 0.213-9.259v-42.667c0-48.64 30.549-85.333 64-85.333 31.787 0 60.928 33.067 63.787 78.123l0.213 7.211v42.667c-0.068 188.462-152.862 341.214-341.333 341.214-188.513 0-341.333-152.82-341.333-341.333s152.82-341.333 341.333-341.333c51.407 0 100.16 11.364 143.884 31.718l-2.103-0.879c5.338 2.583 11.609 4.092 18.233 4.092 23.564 0 42.667-19.103 42.667-42.667 0-17.331-10.333-32.248-25.174-38.928l-0.269-0.108c-51.864-24.276-112.617-38.443-176.679-38.443-0.196 0-0.393 0-0.589 0h0.031c-235.648 0-426.667 191.019-426.667 426.667s191.019 426.667 426.667 426.667zM512 576c-70.692 0-128-57.308-128-128s57.308-128 128-128v0c70.692 0 128 57.308 128 128s-57.308 128-128 128v0z" />
<glyph unicode="&#xe901;" glyph-name="icon-add-block-line" d="M298.667 789.333c-70.692 0-128-57.308-128-128v-256c0-70.694 57.308-128 128-128h42.667v85.333h-42.667c-23.564 0-42.667 19.102-42.667 42.667v256c0 23.564 19.103 42.667 42.667 42.667h256c23.565 0 42.667-19.103 42.667-42.667v-42.667h85.333v42.667c0 70.692-57.306 128-128 128h-256zM597.333 490.667c0 23.565 19.102 42.667 42.667 42.667s42.667-19.102 42.667-42.667v-128h128c23.565 0 42.667-19.102 42.667-42.667s-19.102-42.667-42.667-42.667h-128v-128c0-23.565-19.102-42.667-42.667-42.667s-42.667 19.102-42.667 42.667v128h-128c-23.565 0-42.667 19.102-42.667 42.667s19.102 42.667 42.667 42.667h128v128z" />
<glyph unicode="&#xe902;" glyph-name="icon-calendar-line" d="M640 789.333c23.564 0 42.667-19.103 42.667-42.667v0-42.667h85.333c47.128 0 85.333-38.205 85.333-85.333v0-426.667c0-47.128-38.205-85.333-85.333-85.333v0h-512c-47.128 0-85.333 38.205-85.333 85.333v0 426.667c0 47.128 38.205 85.333 85.333 85.333v0h85.333v42.667c0 23.564 19.103 42.667 42.667 42.667s42.667-19.103 42.667-42.667v0-42.667h170.667v42.667c0 23.564 19.103 42.667 42.667 42.667v0zM768 405.333h-512v-213.333h512v213.333zM341.333 618.667h-85.333v-128h512v128h-85.333v-42.667c0-23.564-19.103-42.667-42.667-42.667s-42.667 19.103-42.667 42.667v0 42.667h-170.667v-42.667c0-23.564-19.103-42.667-42.667-42.667s-42.667 19.103-42.667 42.667v0 42.667z" />
<glyph unicode="&#xe903;" glyph-name="icon-cart-line" d="M362.667 149.333c35.346 0 64-28.654 64-64s-28.654-64-64-64v0c-35.346 0-64 28.654-64 64s28.654 64 64 64v0zM746.667 149.333c35.346 0 64-28.654 64-64s-28.654-64-64-64v0c-35.346 0-64 28.654-64 64s28.654 64 64 64v0zM128 874.667h85.333c19.586-0.001 36.089-13.2 41.102-31.188l0.071-0.3 0.981-4.693 20.693-134.485h619.819c0 0 0 0 0.001 0 23.564 0 42.667-19.103 42.667-42.667 0-1.503-0.078-2.987-0.229-4.45l0.015 0.183-0.811-4.992-70.485-317.184c-12.575-55.214-59.586-96.392-116.793-99.992l-0.369-0.019-7.765-0.213h-370.347c-61.169 0.002-112.315 42.911-124.984 100.271l-0.157 0.849-1.365 7.424-68.651 446.123h-48.725c-23.544 0.027-42.619 19.119-42.619 42.667 0 21.788 16.332 39.762 37.421 42.347l0.206 0.021 4.992 0.299zM842.795 618.667h-553.472l40.363-262.485c2.996-18.999 18.181-33.691 37.177-35.906l0.199-0.019 4.821-0.256h370.347c18.539 0.013 34.311 11.848 40.185 28.374l0.092 0.298 1.365 4.736 58.923 265.259z" />
<glyph unicode="&#xe904;" glyph-name="icon-caution-fill" d="M298.667 789.333c-70.692 0-128-57.308-128-128v-256c0-70.694 57.308-128 128-128h42.667v85.333h-42.667c-23.564 0-42.667 19.102-42.667 42.667v256c0 23.564 19.103 42.667 42.667 42.667h256c23.565 0 42.667-19.103 42.667-42.667v-42.667h85.333v42.667c0 70.692-57.306 128-128 128h-256zM597.333 490.667c0 23.565 19.102 42.667 42.667 42.667s42.667-19.102 42.667-42.667v-128h128c23.565 0 42.667-19.102 42.667-42.667s-19.102-42.667-42.667-42.667h-128v-128c0-23.565-19.102-42.667-42.667-42.667s-42.667 19.102-42.667 42.667v128h-128c-23.565 0-42.667 19.102-42.667 42.667s19.102 42.667 42.667 42.667h128v128z" />
<glyph unicode="&#xe905;" glyph-name="icon-check-line" d="M328.405 388.693c-7.729 7.724-12.51 18.397-12.51 30.187 0 23.569 19.106 42.675 42.675 42.675 11.779 0 22.444-4.772 30.166-12.489l90.453-90.453 181.077 180.949c7.665 7.41 18.12 11.977 29.641 11.977 23.564 0 42.667-19.103 42.667-42.667 0-11.521-4.567-21.976-11.989-29.653l-210.676-210.633c-7.768-8.026-18.639-13.008-30.673-13.008-11.782 0-22.449 4.776-30.17 12.497l-120.661 120.619z" />
<glyph unicode="&#xe906;" glyph-name="icon-chevron-back-line" d="M443.179 609.707l-4.011-3.541-128-128c-1.187-1.184-2.304-2.436-3.345-3.751l-0.068-0.089 3.413 3.84c-7.372-7.425-12.054-17.529-12.457-28.724l-0.002-0.076-0.043-1.365v-1.408l0.171-2.219-0.171 3.627c0.037-10.128 3.569-19.423 9.452-26.751l-0.065 0.084 3.115-3.499 128-128c7.716-7.691 18.362-12.446 30.119-12.446 23.564 0 42.667 19.103 42.667 42.667 0 9.874-3.354 18.964-8.985 26.194l0.072-0.095-3.541 4.011-55.125 55.168h280.96c23.544 0.027 42.619 19.119 42.619 42.667 0 21.788-16.332 39.762-37.421 42.347l-0.206 0.021-4.992 0.299h-280.96l55.125 55.168c7.72 7.721 12.495 18.387 12.495 30.168 0 9.897-3.37 19.008-9.025 26.246l0.071-0.094-3.541 4.011c-7.721 7.72-18.387 12.495-30.168 12.495-9.897 0-19.008-3.37-26.246-9.025l0.094 0.071z" />
<glyph unicode="&#xe907;" glyph-name="icon-chevron-clipboard-line" d="M298.667 832c-70.692 0-128-57.308-128-128v-256c0-70.694 57.308-128 128-128h42.667v85.333h-42.667c-23.564 0-42.667 19.102-42.667 42.667v256c0 23.564 19.103 42.667 42.667 42.667h256c23.565 0 42.667-19.103 42.667-42.667v-42.667h85.333v42.667c0 70.692-57.306 128-128 128h-256zM737.83 503.168c16.661 16.666 43.678 16.666 60.339 0 16.661-16.661 16.661-43.674 0-60.339l-90.513-90.509 90.513-90.513c16.661-16.661 16.661-43.678 0-60.339s-43.678-16.661-60.339 0l-90.513 90.509-90.509-90.505c-16.661-16.661-43.678-16.661-60.339 0s-16.661 43.678 0 60.339l90.509 90.509-90.509 90.505c-16.661 16.666-16.661 43.678 0 60.339 16.661 16.666 43.678 16.666 60.339 0l90.509-90.505 90.513 90.509z" />
<glyph unicode="&#xe908;" glyph-name="icon-chevron-double-line" d="M431.829 500.224l90.496 90.453 90.539-90.453c7.665-7.41 18.12-11.977 29.641-11.977 23.564 0 42.667 19.103 42.667 42.667 0 11.521-4.567 21.976-11.989 29.653l-120.649 120.649c-5.964 5.981-13.7 10.192-22.353 11.779l-0.261 0.040-5.035 0.597h-5.035c-10.847-0.63-20.511-5.239-27.648-12.373l-120.704-120.747c-7.15-7.611-11.543-17.885-11.543-29.185 0-23.564 19.103-42.667 42.667-42.667 11.311 0 21.594 4.401 29.229 11.585l-0.022-0.020zM431.829 382.464l90.496-90.453 90.539 90.453c7.665 7.41 18.12 11.977 29.641 11.977 23.564 0 42.667-19.103 42.667-42.667 0-11.521-4.567-21.976-11.989-29.653l-120.649-120.649c-5.964-5.981-13.7-10.192-22.353-11.779l-0.261-0.040-5.035-0.597h-5.035c-10.847 0.63-20.511 5.239-27.648 12.373l-120.704 120.747c-7.15 7.611-11.543 17.885-11.543 29.185 0 23.564 19.103 42.667 42.667 42.667 11.311 0 21.594-4.401 29.229-11.585l-0.022 0.020z" />
<glyph unicode="&#xe909;" glyph-name="icon-chevron-down-line" d="M431.829 510.464l90.496-90.453 90.539 90.453c7.665 7.41 18.12 11.977 29.641 11.977 23.564 0 42.667-19.103 42.667-42.667 0-11.521-4.567-21.976-11.989-29.653l-120.649-120.649c-5.964-5.981-13.7-10.192-22.353-11.779l-0.261-0.040-5.035-0.597h-5.035c-10.847 0.63-20.511 5.239-27.648 12.373l-120.704 120.747c-7.15 7.611-11.543 17.885-11.543 29.185 0 23.564 19.103 42.667 42.667 42.667 11.311 0 21.594-4.401 29.229-11.585l-0.022 0.020z" />
<glyph unicode="&#xe90a;" glyph-name="icon-chevron-left-line" d="M612.821 329.515l-90.496 90.453 90.496 90.539c7.423 7.667 11.998 18.131 11.998 29.663 0 23.564-19.103 42.667-42.667 42.667-11.511 0-21.957-4.558-29.632-11.969l0.013 0.012-120.747-120.747c-5.981-5.964-10.192-13.7-11.779-22.353l-0.040-0.261-0.597-5.035v-5.035c0.647-10.852 5.269-20.514 12.415-27.647l120.705-120.705c7.722-7.716 18.386-12.489 30.165-12.489 23.569 0 42.675 19.106 42.675 42.675 0 11.79-4.781 22.463-12.51 30.186v0z" />
<glyph unicode="&#xe90b;" glyph-name="icon-chevron-right-line" d="M431.872 510.507l90.496-90.453-90.453-90.539c-7.423-7.667-11.998-18.131-11.998-29.663 0-23.564 19.103-42.667 42.667-42.667 11.511 0 21.957 4.558 29.632 11.969l-0.013-0.012 120.704 120.704c5.981 5.964 10.192 13.7 11.779 22.353l0.040 0.261 0.597 5.035v5.035c-0.643 10.853-5.266 20.516-12.415 27.647l-120.705 120.705c-7.722 7.716-18.386 12.489-30.165 12.489-23.569 0-42.675-19.106-42.675-42.675 0-11.79 4.781-22.463 12.51-30.186v0z" />
<glyph unicode="&#xe90c;" glyph-name="icon-chevron-up-line" d="M431.829 329.557l90.496 90.453 90.539-90.453c7.665-7.41 18.12-11.977 29.641-11.977 23.564 0 42.667 19.103 42.667 42.667 0 11.521-4.567 21.976-11.989 29.653l-120.649 120.649c-5.964 5.981-13.7 10.192-22.353 11.779l-0.261 0.040-5.035 0.597h-5.035c-10.847-0.63-20.511-5.239-27.648-12.373l-120.704-120.747c-7.15-7.611-11.543-17.885-11.543-29.185 0-23.564 19.103-42.667 42.667-42.667 11.311 0 21.594 4.401 29.229 11.585l-0.022-0.020z" />
<glyph unicode="&#xe90d;" glyph-name="icon-circular-info-fill" d="M512 746.667c164.949 0 298.667-133.718 298.667-298.667s-133.718-298.667-298.667-298.667c-164.949 0-298.667 133.718-298.667 298.667s133.718 298.667 298.667 298.667zM512 490.667c-23.564 0-42.667-19.103-42.667-42.667v0-128c0-23.564 19.103-42.667 42.667-42.667s42.667 19.103 42.667 42.667v0 128c0 23.564-19.103 42.667-42.667 42.667zM512 618.667c-23.564 0-42.667-19.103-42.667-42.667s19.103-42.667 42.667-42.667c23.564 0 42.667 19.103 42.667 42.667s-19.103 42.667-42.667 42.667z" />
<glyph unicode="&#xe90e;" glyph-name="icon-clear-fill" d="M512 789.333c188.513 0 341.333-152.82 341.333-341.333s-152.82-341.333-341.333-341.333v0c-188.513 0-341.333 152.82-341.333 341.333s152.82 341.333 341.333 341.333v0zM629.333 565.12c-6.664 6.67-15.874 10.796-26.048 10.796s-19.383-4.126-26.048-10.796l-65.11-65.152-65.152 65.152c-6.662 6.657-15.864 10.774-26.027 10.774-20.336 0-36.822-16.486-36.822-36.822 0-10.174 4.126-19.383 10.795-26.048v0l65.109-65.152-65.152-65.109c-6.657-6.662-10.774-15.864-10.774-26.027 0-20.336 16.486-36.822 36.822-36.822 10.174 0 19.383 4.126 26.048 10.795v0l65.152 65.067 65.109-65.109c6.662-6.657 15.864-10.774 26.027-10.774 20.336 0 36.822 16.486 36.822 36.822 0 10.174-4.126 19.383-10.795 26.048v0l-65.067 65.109 65.109 65.152c6.657 6.662 10.775 15.864 10.775 26.027s-4.117 19.364-10.775 26.027v0z" />
<glyph unicode="&#xe90f;" glyph-name="icon-clock-line" d="M384 960c212.077 0 384-171.923 384-384s-171.923-384-384-384c-212.077 0-384 171.923-384 384s171.923 384 384 384zM384 874.667c-164.949 0-298.667-133.718-298.667-298.667s133.718-298.667 298.667-298.667c164.949 0 298.667 133.718 298.667 298.667s-133.718 298.667-298.667 298.667zM384 746.667c21.881 0 39.915-16.471 42.38-37.691l0.287-4.976v-110.292l51.503-51.538c15.381-15.381 16.564-39.583 3.549-56.32l-3.549-4.020c-15.381-15.381-39.583-16.564-56.32-3.549l-4.020 3.549-64 64c-6.668 6.668-10.901 15.316-12.127 24.562l-0.37 5.608v128c0 23.564 19.103 42.667 42.667 42.667z" />
<glyph unicode="&#xe910;" glyph-name="icon-close-line" d="M713.728 608.299c7.718-7.721 12.492-18.386 12.492-30.165s-4.774-22.445-12.492-30.165v0l-120.704-120.619 120.704-120.747c8.036-7.769 13.026-18.647 13.026-30.69 0-23.564-19.103-42.667-42.667-42.667-12.043 0-22.92 4.989-30.678 13.014l-120.716 120.759-120.661-120.747c-7.665-7.41-18.12-11.977-29.641-11.977-23.564 0-42.667 19.103-42.667 42.667 0 11.521 4.567 21.976 11.989 29.653l120.649 120.735-120.661 120.619c-7.41 7.665-11.977 18.12-11.977 29.641 0 23.564 19.103 42.667 42.667 42.667 11.521 0 21.976-4.567 29.653-11.989l120.649-120.607 120.704 120.619c7.721 7.718 18.386 12.492 30.165 12.492s22.445-4.774 30.165-12.492v0z" />
<glyph unicode="&#xe911;" glyph-name="icon-cloud-download-line" d="M509.013 64h-0.427l-2.987 0.427c-2.047 0.391-3.768 0.834-5.446 1.37l0.326-0.090-1.707 0.427c-5.245 1.63-9.792 4.109-13.727 7.312l0.074-0.058-3.413 2.987-128 128c-8.087 7.776-13.11 18.687-13.11 30.771 0 23.564 19.103 42.667 42.667 42.667 10.172 0 19.512-3.559 26.844-9.501l-0.080 0.063 4.267-3.413 55.040-55.893v281.6c-0.049 0.765-0.077 1.659-0.077 2.56 0 23.607 19.137 42.743 42.743 42.743 22.706 0 41.277-17.705 42.661-40.062l0.006-0.122v-285.867l55.467 55.040c7.694 7.567 18.256 12.238 29.909 12.238 9.823 0 18.871-3.32 26.082-8.898l-0.098 0.073 4.267-3.413c7.677-7.714 12.423-18.351 12.423-30.096 0-9.929-3.392-19.067-9.080-26.316l0.070 0.093-3.413-4.267-128-128-2.987-2.56-2.133-1.28c-2.097-1.539-4.477-2.962-6.987-4.153l-0.266-0.114-2.133-1.28c-0.547-0.22-1.398-0.511-2.261-0.775l-0.299-0.079-1.707-0.427c-3.036-0.958-6.541-1.572-10.169-1.705l-0.071-0.002h-4.267zM445.867 830.293c114.317-13.617 208.771-86.911 252.23-187.405l0.783-2.035 5.12-11.947h11.52c0.044 0 0.095 0 0.147 0 90.926 0 168.486-57.228 198.626-137.631l0.481-1.463 2.987-9.387c6.3-19.169 9.934-41.232 9.934-64.144 0-71.45-35.338-134.647-89.49-173.067l-0.658-0.443c-6.835-4.845-15.345-7.744-24.533-7.744-23.6 0-42.731 19.131-42.731 42.731 0 14.412 7.135 27.157 18.065 34.897l0.133 0.090c32.919 23.206 54.16 61.067 54.16 103.889 0 67.424-52.658 122.55-119.092 126.494l-0.348 0.017h-50.347c-20.027 0.066-36.799 13.919-41.327 32.562l-0.060 0.292c-25.95 99.918-115.34 172.502-221.683 172.502-126.304 0-228.693-102.389-228.693-228.693 0-58.468 21.941-111.812 58.039-152.246l-0.196 0.224c6.684-7.512 10.767-17.466 10.767-28.373 0-23.62-19.148-42.767-42.767-42.767-12.712 0-24.129 5.546-31.962 14.351l-0.038 0.043c-48.712 55.058-78.455 127.881-78.455 207.651 0 173.432 140.595 314.027 314.027 314.027 12.46 0 24.75-0.726 36.83-2.137l-1.468 0.14z" />
<glyph unicode="&#xe912;" glyph-name="icon-cloud-stop-upload-line" d="M236.446 822.737l3.673-3.473 610-641.339c15.168-16.236 14.349-41.737-1.831-56.958-14.935-14.050-37.737-14.43-53.087-1.635l-72.985 76.642c-9.205-1.872-18.55-3.084-27.964-3.622l-11.026-0.321-269.836 0.005c-128.767-2.006-242.555 81.103-275.843 201.777-31.204 113.117 15.896 231.804 114.686 296.033l-70.706 74.298c-15.168 16.236-14.349 41.737 1.831 56.958 14.935 14.050 37.737 14.43 53.087 1.635zM308.48 630.741l3.408 1.912c-80.228-42.884-119.842-132.819-96.301-218.158 22.801-82.655 99.245-140.689 187.943-143.168l9.218-0.057 237.833 0.005-342.101 359.467zM450.309 746.667l4.719-0.152c105.854-9.424 196.089-77.172 236.201-173.26l4.001-10.136 8.344-0.008c61.528 0.074 119.066-29.34 155.159-78.614l5.518-7.944c35.342-53.701 41.586-121.526 16.684-180.783-8.502-20.232-32.128-29.878-52.769-21.544-19.167 7.738-29.021 28.258-23.524 47.349l1.544 4.374c14.828 35.287 11.1 75.788-9.869 107.65-19.363 29.421-50.963 47.754-85.298 50.032l-7.396 0.24h-38.248c-18.591 0-34.785 12.43-39.242 30.121-21.299 84.538-92.951 145.999-178.418 153.608-22.232 1.979-38.618 21.249-36.599 43.041 1.731 18.679 16.422 33.147 34.585 35.653l4.607 0.373z" />
<glyph unicode="&#xe913;" glyph-name="icon-cloud-upload-line" d="M514.929 533.244l0.282-0.030 0.23-0.013h0.128l2.787-0.338 2.209-0.393c0.94-0.188 1.865-0.409 2.778-0.661l1.976-0.598c0.839-0.272 1.683-0.579 2.514-0.912 0.757-0.303 1.495-0.622 2.226-0.963 0.882-0.414 1.752-0.858 2.605-1.331 0.517-0.283 1.038-0.586 1.554-0.901 1.091-0.671 2.151-1.386 3.177-2.147 0.258-0.188 0.508-0.378 0.757-0.571 0.289-0.229 0.412-0.327 0.535-0.426l3.484-3.123 128-128c16.662-16.662 16.662-43.677 0-60.34-15.381-15.381-39.583-16.564-56.32-3.549l-4.020 3.549-55.163 55.13v-280.96c0-23.564-19.103-42.667-42.667-42.667-21.881 0-39.915 16.471-42.38 37.691l-0.287 4.976v280.96l-55.163-55.13c-15.381-15.381-39.583-16.564-56.32-3.549l-4.020 3.549c-15.381 15.381-16.564 39.583-3.549 56.32l3.549 4.020 128 128 3.189 2.893 1.581 1.227c1.032 0.761 2.092 1.477 3.185 2.145 0.514 0.318 1.035 0.622 1.562 0.913 0.843 0.464 1.714 0.909 2.601 1.323 0.725 0.34 1.464 0.66 2.209 0.957 0.843 0.337 1.687 0.644 2.543 0.925l1.952 0.585c0.92 0.256 1.845 0.478 2.782 0.669l2.233 0.39c0.851 0.13 1.731 0.234 2.62 0.311 0.802 0.067 1.57 0.113 2.339 0.137 0.429 0.014 0.901 0.022 1.376 0.022l3.355-0.132-0.427 0.043zM445.882 830.438c113.519-13.075 209.626-86.469 253.19-189.547l4.8-12.197 11.492-0.008c89.366 0.070 168.82-55.799 199.356-139.070l3.083-9.026c27.956-88.235-4.509-184.41-80.222-237.651-19.275-13.555-45.889-8.917-59.444 10.359s-8.917 45.889 10.359 59.444c45.263 31.829 64.672 89.325 47.959 142.075-15.917 50.238-61.099 85.129-113.194 88.3l-7.863 0.236h-42.718c-19.48 0-36.486 13.194-41.328 32.062-23.532 91.71-101.174 159.417-195.234 170.25s-185.061-37.449-228.827-121.408c-43.766-83.959-31.234-186.211 31.512-257.116 15.616-17.647 13.97-44.612-3.677-60.228s-44.612-13.97-60.228 3.677c-86.173 97.378-103.384 237.805-43.278 353.111s185.083 181.615 314.26 166.736z" />
<glyph unicode="&#xe914;" glyph-name="icon-comment-add-line" d="M256 832c-94.257 0-170.667-76.41-170.667-170.667v-555.772l0.057-1.105 0.244-4.702 0.058-1.122 0.117-1.118c6.778-64.567 82.228-99.486 136.056-59.115h0.001l147.897 110.933h398.235c94.255 0 170.667 76.412 170.667 170.667v341.333c0 94.257-76.412 170.667-170.667 170.667h-512zM170.667 661.333c0 47.128 38.205 85.333 85.333 85.333h512c47.13 0 85.333-38.205 85.333-85.333v-341.333c0-47.13-38.204-85.333-85.333-85.333h-426.682l-170.596-127.957-0.055 1.062v553.562zM469.333 618.667h85.333v-85.333h85.333v-85.333h-85.333v-85.333h-85.333v85.333h-85.333v85.333h85.333v85.333z" />
<glyph unicode="&#xe915;" glyph-name="icon-comment-line" d="M128 633.737c0 86.234 70.344 155.596 156.445 155.596h455.11c86.101 0 156.446-69.362 156.446-155.596v-343.809c0-43.998-18.5-80.678-49.126-105.502-29.709-24.073-68.271-35.093-107.319-35.093h-379.407l-100.049-109.525-3.273-2.436c-50.466-37.568-121.903-5.466-128.372 55.706l-0.226 2.142-0.227 48.96v489.559zM284.445 704c-39.575 0-71.111-31.758-71.111-70.263v-489.358l0.135-29.094 109.051 119.381h417.034c23.791 0 42.116 6.758 53.594 16.055 10.547 8.55 17.519 20.83 17.519 39.206v343.809c0 38.505-31.535 70.263-71.113 70.263h-455.11z" />
<glyph unicode="&#xe916;" glyph-name="icon-copy-line" d="M256 832c-70.692 0-128-57.308-128-128v-256c0-70.694 57.308-128 128-128h42.667v85.333h-42.667c-23.564 0-42.667 19.102-42.667 42.667v256c0 23.564 19.103 42.667 42.667 42.667h256c23.565 0 42.667-19.103 42.667-42.667v-42.667h85.333v42.667c0 70.692-57.306 128-128 128h-256zM512 576c-70.694 0-128-57.306-128-128v-256c0-70.694 57.306-128 128-128h256c70.694 0 128 57.306 128 128v256c0 70.694-57.306 128-128 128h-256zM469.333 448c0 23.565 19.102 42.667 42.667 42.667h256c23.565 0 42.667-19.102 42.667-42.667v-256c0-23.565-19.102-42.667-42.667-42.667h-256c-23.565 0-42.667 19.102-42.667 42.667v256z" />
<glyph unicode="&#xe917;" glyph-name="icon-delete-line" d="M469.333 704h85.333c0 23.564-19.102 42.667-42.667 42.667s-42.667-19.103-42.667-42.667zM384 704h-170.667c-23.564 0-42.667-19.103-42.667-42.667s19.103-42.667 42.667-42.667h42.667v-384c0-70.694 57.308-128 128-128h256c70.694 0 128 57.306 128 128v384h42.667c23.565 0 42.667 19.103 42.667 42.667s-19.102 42.667-42.667 42.667h-170.667c0 70.692-57.306 128-128 128s-128-57.308-128-128zM341.333 234.667v384h341.333v-384c0-23.565-19.102-42.667-42.667-42.667h-256c-23.564 0-42.667 19.102-42.667 42.667zM426.667 490.667v-170.667h64v170.667h-64zM597.333 490.667v-170.667h-64v170.667h64z" />
<glyph unicode="&#xe918;" d="M1024 448c0-282.77-229.23-512-512-512s-512 229.23-512 512c0 282.77 229.23 512 512 512s512-229.23 512-512z" />
<glyph unicode="&#xe919;" d="M512 762.027c0.005 0 0.010 0 0.016 0 50.209 0 91.977-36.135 100.718-83.818l0.096-0.628 0.887-6.11 0.341-3.925 0.41-7.919h136.465c18.851 0 34.133-15.282 34.133-34.133s-15.282-34.133-34.133-34.133h-34.133v-307.2c0-56.559-42.325-102.4-94.549-102.4h-220.501c-52.224 0-94.549 45.841-94.549 102.4v307.2h-34.133c-18.851 0-34.133 15.282-34.133 34.133s15.282 34.133 34.133 34.133v0h136.533c0 56.554 45.846 102.4 102.4 102.4v0zM648.533 591.36h-273.067v-307.2c0-17.51 11.708-31.949 26.795-33.894l3.584-0.239h212.378c15.565 0 28.399 13.175 30.14 30.14l0.171 3.994v307.2zM469.333 488.96c14.138 0 25.6-11.462 25.6-25.6v0-119.467c0-14.138-11.462-25.6-25.6-25.6s-25.6 11.462-25.6 25.6v0 119.467c0 14.138 11.462 25.6 25.6 25.6v0zM554.667 488.96c14.138 0 25.6-11.462 25.6-25.6v0-119.467c0-14.138-11.462-25.6-25.6-25.6s-25.6 11.462-25.6 25.6v0 119.467c0 14.138 11.462 25.6 25.6 25.6v0zM512 693.76c-17.442-0.002-31.827-13.087-33.878-29.976l-0.016-0.164-0.239-3.994h68.267l-0.239 3.994c-2.067 17.053-16.452 30.137-33.894 30.14v0z" />
<glyph unicode="&#xe91a;" glyph-name="icon-edit-line" d="M576.64 691.499l-308.139-308.139c-7.722-7.719-12.499-18.384-12.501-30.165v-118.529c0-23.564 19.103-42.667 42.667-42.667v0h118.528c11.781 0.003 22.446 4.78 30.165 12.501l308.139 308.139c7.718 7.721 12.492 18.386 12.492 30.165s-4.774 22.445-12.492 30.165l-118.485 118.528c-7.721 7.718-18.386 12.492-30.165 12.492s-22.445-4.774-30.165-12.492v0zM606.805 601.003l58.155-58.155-265.515-265.515h-58.112v58.197l265.472 265.472z" />
<glyph unicode="&#xe91b;" glyph-name="icon-email-line" d="M810.667 789.333c70.692 0 128-57.308 128-128v0-426.667c0-70.692-57.308-128-128-128v0h-597.333c-70.692 0-128 57.308-128 128v0 426.667c0 70.692 57.308 128 128 128v0h597.333zM853.333 647.339l-313.216-274.133c-7.464-6.558-17.314-10.559-28.099-10.559-8.943 0-17.243 2.751-24.1 7.453l0.145-0.094-4.181 3.2-313.216 274.091v-412.629c0-23.564 19.103-42.667 42.667-42.667v0h597.333c23.564 0 42.667 19.103 42.667 42.667v0 412.672zM788.48 704h-553.045l276.565-241.963 276.48 241.963z" />
<glyph unicode="&#xe91c;" d="M298.667 789.333h426.667c70.692 0 128-57.308 128-128v-426.667c0-70.692-57.308-128-128-128h-426.667c-70.692 0-128 57.308-128 128v426.667c0 70.692 57.308 128 128 128z" />
<glyph unicode="&#xe91d;" d="M512 405.333c-23.564 0-42.667 19.103-42.667 42.667v0 128c0 23.564 19.103 42.667 42.667 42.667s42.667-19.103 42.667-42.667v0-128c0-23.564-19.103-42.667-42.667-42.667v0zM512 277.333c-23.564 0-42.667 19.103-42.667 42.667s19.103 42.667 42.667 42.667v0c23.564 0 42.667-19.103 42.667-42.667s-19.103-42.667-42.667-42.667v0z" />
<glyph unicode="&#xe91e;" glyph-name="icon-filters-line" d="M597.333 277.333c23.564 0 42.667-19.103 42.667-42.667s-19.103-42.667-42.667-42.667v0h-170.667c-23.564 0-42.667 19.103-42.667 42.667s19.103 42.667 42.667 42.667v0h170.667zM725.333 490.667c23.564 0 42.667-19.103 42.667-42.667s-19.103-42.667-42.667-42.667v0h-426.667c-23.564 0-42.667 19.103-42.667 42.667s19.103 42.667 42.667 42.667v0h426.667zM810.667 704c23.564 0 42.667-19.103 42.667-42.667s-19.103-42.667-42.667-42.667v0h-597.333c-23.564 0-42.667 19.103-42.667 42.667s19.103 42.667 42.667 42.667v0h597.333z" />
<glyph unicode="&#xe91f;" glyph-name="icon-folder-fill" d="M810.667 248.887c0-15.087-6.293-29.555-17.498-40.226-11.2-10.667-26.394-16.661-42.236-16.661h-477.867c-15.842 0-31.036 5.995-42.238 16.661-11.202 10.671-17.495 25.139-17.495 40.226v398.224c0 15.088 6.293 29.558 17.495 40.227s26.396 16.662 42.238 16.662h127.119c13.923 0 26.968-6.793 34.955-18.199l34.253-48.935c7.987-11.406 21.030-18.199 34.957-18.199h246.583c15.842 0 31.036-5.994 42.236-16.662 11.204-10.669 17.498-25.139 17.498-40.227v-312.89z" />
<glyph unicode="&#xe920;" glyph-name="icon-folder-line" d="M273.067 661.333c-5.18 0-9.754-1.979-12.812-4.892-2.988-2.846-4.254-6.249-4.254-9.33v-398.224c0-3.081 1.266-6.481 4.254-9.327 3.059-2.914 7.633-4.894 12.812-4.894h477.867c5.18 0 9.754 1.98 12.813 4.894 2.987 2.846 4.254 6.246 4.254 9.327v312.89c0 3.081-1.267 6.484-4.254 9.33-3.059 2.913-7.633 4.892-12.813 4.892h-246.583c-27.849 0-53.943 13.586-69.909 36.398l-34.255 48.936h-127.119zM201.404 718.234c19.345 18.425 45.158 28.433 71.663 28.433h127.119c27.847 0 53.942-13.586 69.908-36.398l34.257-48.935h246.583c26.505 0 52.318-10.008 71.663-28.433 19.418-18.492 30.737-44.029 30.737-71.123v-312.89c0-27.093-11.319-52.629-30.737-71.121-19.345-18.423-45.158-28.433-71.663-28.433h-477.867c-26.505 0-52.317 10.010-71.663 28.433-19.417 18.492-30.737 44.028-30.737 71.121v398.224c0 27.094 11.32 52.631 30.737 71.123z" />
<glyph unicode="&#xe921;" glyph-name="icon-font-bold-line" d="M518.315 218.667c54.443 0 96.299 12.203 125.525 36.693 29.227 24.405 43.819 59.435 43.819 104.96 0 27.563-7.168 51.2-21.504 70.827-14.336 19.669-34.56 33.067-60.8 40.192 23.083 9.771 40.661 23.552 52.651 41.344 11.989 17.749 18.005 37.76 18.005 59.989 0 43.52-14.336 76.331-43.008 98.347-28.672 21.973-70.443 32.981-125.355 32.981h-166.315v-485.333h176.981zM508.331 499.669h-82.645v136.32h81.963c28.928 0 50.176-5.333 63.872-16 13.653-10.667 20.48-27.989 20.48-51.968 0-21.76-7.381-38.613-22.187-50.517-14.763-11.904-35.243-17.835-61.44-17.835zM519.339 285.995h-93.653v151.68h100.651c51.541-1.109 77.312-26.88 77.312-77.355 0-23.339-7.424-41.557-22.315-54.613-14.891-13.141-35.541-19.712-61.995-19.712z" />
<glyph unicode="&#xe922;" glyph-name="icon-font-italic-line" d="M512 618.667h-42.667c-23.564 0-42.667 19.103-42.667 42.667s19.103 42.667 42.667 42.667v0h170.667c23.564 0 42.667-19.103 42.667-42.667s-19.103-42.667-42.667-42.667v0h-42.667l-85.333-341.333h42.667c23.564 0 42.667-19.103 42.667-42.667s-19.103-42.667-42.667-42.667v0h-170.667c-23.564 0-42.667 19.103-42.667 42.667s19.103 42.667 42.667 42.667v0h42.667l85.333 341.333z" />
<glyph unicode="&#xe923;" glyph-name="icon-form-line" d="M810.667 320c47.128 0 85.333-38.205 85.333-85.333v0-85.333c0-47.128-38.205-85.333-85.333-85.333v0h-597.333c-47.128 0-85.333 38.205-85.333 85.333v0 85.333c0 47.128 38.205 85.333 85.333 85.333v0h597.333zM810.667 234.667h-597.333v-85.333h597.333v85.333zM810.667 832c47.128 0 85.333-38.205 85.333-85.333v0-256c0-47.128-38.205-85.333-85.333-85.333v0h-597.333c-47.128 0-85.333 38.205-85.333 85.333v0 256c0 47.128 38.205 85.333 85.333 85.333v0h597.333zM810.667 746.667h-597.333v-256h597.333v256z" />
<glyph unicode="&#xe924;" glyph-name="icon-grid-line" d="M469.333 405.333v-170.667h-170.667v170.667h170.667zM725.333 405.333v-170.667h-170.667v170.667h170.667zM469.333 661.333v-170.667h-170.667v170.667h170.667zM725.333 661.333v-170.667h-170.667v170.667h170.667z" />
<glyph unicode="&#xe925;" glyph-name="icon-handle-line" d="M469.333 320v-85.333h-85.333v85.333h85.333zM640 320v-85.333h-85.333v85.333h85.333zM469.333 490.667v-85.333h-85.333v85.333h85.333zM640 490.667v-85.333h-85.333v85.333h85.333zM469.333 661.333v-85.333h-85.333v85.333h85.333zM640 661.333v-85.333h-85.333v85.333h85.333z" />
<glyph unicode="&#xe926;" glyph-name="icon-help-circle-fill" d="M512 746.667c164.949 0 298.667-133.718 298.667-298.667s-133.718-298.667-298.667-298.667v0c-164.949 0-298.667 133.718-298.667 298.667s133.718 298.667 298.667 298.667v0zM503.979 350.848c-0.443 0.017-0.963 0.027-1.486 0.027-10.689 0-20.408-4.15-27.635-10.928l0.022 0.020c-7.033-6.678-11.409-16.096-11.409-26.536 0-0.391 0.006-0.78 0.018-1.168l-0.001 0.057c0-11.008 3.712-20.053 11.136-27.221s17.195-10.752 29.355-10.752c12.203 0 21.973 3.584 29.397 10.752 6.854 6.607 11.11 15.868 11.11 26.123 0 0.386-0.006 0.771-0.018 1.154l0.001-0.056c0.012 0.343 0.018 0.746 0.018 1.151 0 10.42-4.359 19.822-11.352 26.483l-0.015 0.014c-7.204 6.757-16.924 10.907-27.613 10.907-0.523 0-1.043-0.010-1.561-0.030l0.075 0.002zM509.013 646.315c-34.987 0-62.635-8.96-82.901-26.965-18.219-16.213-28.373-38.016-30.464-65.408l-0.427-9.387h72.533c0.341 13.355 4.224 23.808 11.605 31.403 7.424 7.595 17.323 11.392 29.653 11.392 26.027 0 38.997-14.080 38.997-42.24 0-9.387-2.517-18.219-7.509-26.667-4.992-8.405-15.061-19.328-30.123-32.725-15.104-13.44-25.472-27.051-31.147-40.875-4.821-11.861-7.595-27.221-8.32-46.080l-0.171-9.685h64l1.024 15.275c1.536 13.995 7.125 26.453 16.64 37.376l5.12 5.376 20.224 19.2c15.829 15.36 26.88 29.312 33.28 41.899 5.972 11.583 9.473 25.279 9.473 39.793 0 0.11 0 0.22-0.001 0.33v-0.017c0 31.189-9.771 55.296-29.269 72.405-19.499 17.067-46.933 25.6-82.219 25.6z" />
<glyph unicode="&#xe927;" d="M1024 448c0-282.77-229.23-512-512-512s-512 229.23-512 512c0 282.77 229.23 512 512 512s512-229.23 512-512z" />
<glyph unicode="&#xe928;" d="M449.771 374.354c0 29.167 3.542 52.396 10.625 69.687s20.052 34.323 38.906 51.094c18.854 16.771 31.406 30.417 37.656 40.938s9.375 21.615 9.375 33.281c0 35.208-16.25 52.813-48.75 52.813-15.417 0-27.76-4.74-37.031-14.219s-14.115-22.552-14.531-39.219h-90.625c0.417 39.792 13.281 70.937 38.594 93.437s59.844 33.75 103.594 33.75c44.167 0 78.438-10.677 102.813-32.031s36.562-51.51 36.562-90.469c0-17.708-3.958-34.427-11.875-50.156s-21.771-33.177-41.562-52.344l-25.313-24.062c-15.833-15.208-24.896-33.021-27.187-53.438l-1.25-19.062h-80zM440.708 278.417c0 13.958 4.74 25.469 14.219 34.531s21.615 13.594 36.406 13.594c14.792 0 26.927-4.531 36.406-13.594s14.219-20.573 14.219-34.531c0-13.75-4.635-25.104-13.906-34.063s-21.51-13.437-36.719-13.437c-15.208 0-27.448 4.479-36.719 13.437s-13.906 20.312-13.906 34.063z" />
<glyph unicode="&#xe929;" glyph-name="icon-history-line" d="M645.867 142.537c163.255 94.255 219.191 303.010 124.937 466.268-32.533 56.346-78.801 99.993-132.139 129.029-100.86 54.903-227.237 57.624-334.132-4.092-47.978-27.7-86.681-65.298-115.028-108.705l-32.169 9.431c-31.518 9.241-61.22-19.103-53.464-51.019l34.904-143.623c7.756-31.915 47.154-43.465 70.916-20.791l106.928 102.042c23.761 22.673 14.066 62.569-17.452 71.809l-22.762 6.673c19.166 23.61 42.892 44.174 70.794 60.283 80.095 46.243 174.819 44.331 250.668 3.044 39.936-21.741 74.577-54.385 99.034-96.747 70.694-122.443 28.74-279.008-93.7-349.702-82.287-47.509-180.025-44.19-256.844 0.431-20.377 11.836-46.489 4.911-58.324-15.467s-4.911-46.49 15.465-58.325c102.167-59.341 232.541-63.949 342.369-0.538zM426.667 533.334c0 23.564 19.102 42.667 42.667 42.667s42.667-19.102 42.667-42.667v-109.965l61.807-35.686c20.407-11.78 27.401-37.875 15.62-58.283-11.785-20.407-37.879-27.401-58.287-15.616l-82.496 47.629c-13.542 7.821-21.18 21.943-21.338 36.523-0.422 2.402-0.64 4.877-0.64 7.398v128z" />
<glyph unicode="&#xe92a;" glyph-name="icon-home-line" d="M341.333 106.667c-70.692 0-128 57.308-128 128v0 251.691c0.002 36.895 15.613 70.143 40.589 93.501l0.072 0.067 170.667 159.275c22.806 21.329 53.543 34.427 87.339 34.427s64.533-13.098 87.411-34.494l-0.073 0.067 170.667-159.275c25.049-23.425 40.66-56.673 40.661-93.568v0-251.691c0-70.692-57.308-128-128-128v0zM541.099 676.821c-7.6 7.102-17.84 11.462-29.099 11.462s-21.498-4.361-29.123-11.485l0.025 0.023-170.667-159.275c-8.355-7.806-13.564-18.889-13.568-31.188v-251.692c0-23.564 19.103-42.667 42.667-42.667v0h42.667v128c0 0.002 0 0.005 0 0.007 0 68.051 53.104 123.698 120.133 127.762l0.358 0.017 7.509 0.213c70.692 0 128-57.308 128-128v0-128h42.667c21.803 0.003 39.784 16.359 42.348 37.47l0.020 0.205 0.299 4.992v251.691c-0.017 12.285-5.223 23.35-13.543 31.124l-0.025 0.023zM512 362.667c-23.564 0-42.667-19.103-42.667-42.667v0-128h85.333v128c0 23.564-19.103 42.667-42.667 42.667v0z" />
<glyph unicode="&#xe92b;" d="M298.667 789.333h426.667c70.692 0 128-57.308 128-128v-426.667c0-70.692-57.308-128-128-128h-426.667c-70.692 0-128 57.308-128 128v426.667c0 70.692 57.308 128 128 128z" />
<glyph unicode="&#xe92c;" d="M512 490.667c23.564 0 42.667-19.103 42.667-42.667v0-128c0-23.564-19.103-42.667-42.667-42.667s-42.667 19.103-42.667 42.667v0 128c0 23.564 19.103 42.667 42.667 42.667v0zM512 618.667c23.564 0 42.667-19.103 42.667-42.667s-19.103-42.667-42.667-42.667v0c-23.564 0-42.667 19.103-42.667 42.667s19.103 42.667 42.667 42.667v0z" />
<glyph unicode="&#xe92d;" glyph-name="icon-language-line" d="M387.049 382.903c7.084-74.359 26.049-138.283 52.008-180.361-92.202 27.358-162.673 105.25-179.311 201.579l127.303-21.218zM474.633 368.307c5.385-39.164 14.46-72.61 25.293-97.882 4.245-9.907 8.375-17.664 12.075-23.59 3.699 5.926 7.829 13.683 12.075 23.59 10.833 25.271 19.908 58.718 25.293 97.882l-30.353-5.060c-4.642-0.772-9.387-0.772-14.029 0l-30.353 5.060zM554.62 455.693l-42.62-7.104-42.62 7.104c0.866 70.421 13.547 130.222 30.545 169.882 4.245 9.908 8.375 17.664 12.075 23.592 3.699-5.928 7.829-13.683 12.075-23.592 16.998-39.66 29.679-99.461 30.545-169.882zM636.949 382.903c-7.083-74.359-26.048-138.283-52.006-180.361 92.203 27.358 162.671 105.25 179.311 201.579l-127.305-21.218zM764.484 490.526c-1.161-0.098-2.33-0.243-3.499-0.439l-121.323-20.22c-2.871 92.633-23.851 173.556-54.72 223.592 92.634-27.487 163.332-105.983 179.541-202.932zM384.338 469.867l-121.324 20.22c-1.17 0.196-2.337 0.341-3.499 0.439 16.209 96.95 86.907 175.446 179.541 202.932-30.868-50.036-51.847-130.959-54.719-223.592zM512 106.667c188.514 0 341.333 152.819 341.333 341.333s-152.819 341.333-341.333 341.333c-188.513 0-341.333-152.82-341.333-341.333s152.82-341.333 341.333-341.333z" />
<glyph unicode="&#xe92e;" glyph-name="icon-link-external-line" d="M354.462 618.667c23.564 0 42.667-19.103 42.667-42.667 0-21.881-16.471-39.915-37.691-42.38l-4.976-0.287h-32.821c-11.42 0-20.893-8.332-22.674-19.248l-0.301-3.727v-295.385c0-11.42 8.332-20.893 19.248-22.674l3.727-0.301h295.385c11.42 0 20.893 8.332 22.674 19.248l0.301 3.727v32.821c0 23.564 19.103 42.667 42.667 42.667 21.881 0 39.915-16.471 42.38-37.691l0.287-4.976v-32.821c0-57.424-44.689-104.41-101.186-108.077l-7.121-0.23h-295.385c-57.424 0-104.41 44.689-108.077 101.186l-0.23 7.121v295.385c0 57.424 44.689 104.41 101.186 108.077l7.121 0.23h32.821zM753.359 681.151c21.752 0 39.701-16.277 42.334-37.315l0.332-5.352v-181.019c0-23.564-19.103-42.667-42.667-42.667-21.752 0-39.701 16.277-42.334 37.315l-0.332 5.352-0.036 71.75-180.417-180.441c-16.662-16.662-43.677-16.662-60.34 0s-16.662 43.677 0 60.34l186.698 186.704h-84.258c-21.752 0-39.701 16.277-42.334 37.315l-0.332 5.352c0 21.752 16.277 39.701 37.315 42.334l5.352 0.332h181.019z" />
<glyph unicode="&#xe92f;" glyph-name="icon-link-line" d="M179.446 256c-58.91 102.033-23.95 232.508 78.086 291.417l73.901 42.667c20.407 11.782 46.502 4.79 58.284-15.617s4.79-46.5-15.617-58.285l-73.901-42.667c-61.222-35.345-82.197-113.63-46.851-174.848 35.346-61.222 113.63-82.202 174.851-46.852l73.903 42.667c20.403 11.78 46.498 4.787 58.283-15.62 11.78-20.403 4.787-46.498-15.616-58.283l-73.903-42.667c-102.036-58.91-232.509-23.949-291.419 78.089zM327.248 341.333c-11.782 20.403-4.79 46.498 15.617 58.283l295.603 170.666c20.407 11.782 46.502 4.79 58.283-15.617 11.785-20.407 4.791-46.5-15.616-58.285l-295.603-170.667c-20.407-11.78-46.502-4.787-58.284 15.62zM766.468 348.578c102.037 58.91 136.994 189.384 78.084 291.42s-189.38 136.996-291.418 78.086l-73.899-42.667c-20.407-11.782-27.401-37.876-15.62-58.284 11.785-20.407 37.879-27.399 58.287-15.617l73.899 42.667c61.222 35.346 139.507 14.37 174.852-46.851s14.37-139.505-46.852-174.85l-73.899-42.667c-20.407-11.785-27.401-37.879-15.62-58.283 11.785-20.407 37.879-27.401 58.287-15.62l73.899 42.667z" />
<glyph unicode="&#xe930;" glyph-name="icon-list-line" d="M341.333 405.333v-170.667h-170.667v170.667h170.667zM853.333 405.333v-170.667h-426.667v170.667h426.667zM341.333 661.333v-170.667h-170.667v170.667h170.667zM853.333 661.333v-170.667h-426.667v170.667h426.667z" />
<glyph unicode="&#xe932;" glyph-name="icon-location-line" d="M512 874.667c212.053 0 384-170.069 384-379.819 0-138.837-116.139-285.611-343.552-445.483l-40.448-28.032-24.405 16.853c-237.995 164.267-359.595 314.581-359.595 456.661 0 209.749 171.947 379.819 384 379.819zM512 790.272c-164.949 0-298.667-132.267-298.667-295.424 0-102.528 98.005-227.584 298.667-370.347 200.661 142.763 298.667 267.819 298.667 370.347 0 163.157-133.717 295.424-298.667 295.424zM512 704c94.257 0 170.667-76.41 170.667-170.667s-76.41-170.667-170.667-170.667v0c-94.257 0-170.667 76.41-170.667 170.667s76.41 170.667 170.667 170.667v0zM512 618.667c-47.128 0-85.333-38.205-85.333-85.333s38.205-85.333 85.333-85.333v0c47.128 0 85.333 38.205 85.333 85.333s-38.205 85.333-85.333 85.333v0z" />
<glyph unicode="&#xe933;" glyph-name="icon-lock-fill" d="M512 746.667c94.257 0 170.667-76.41 170.667-170.667v0-85.333c47.128 0 85.333-38.205 85.333-85.333v0-170.667c0-47.128-38.205-85.333-85.333-85.333v0h-341.333c-47.128 0-85.333 38.205-85.333 85.333v0 170.667c0 47.128 38.205 85.333 85.333 85.333v0 85.333c0 94.257 76.41 170.667 170.667 170.667v0zM512 362.667c-23.564 0-42.667-19.103-42.667-42.667s19.103-42.667 42.667-42.667v0c23.564 0 42.667 19.103 42.667 42.667s-19.103 42.667-42.667 42.667v0zM512 661.333c-0.008 0-0.018 0-0.027 0-44.876 0-81.661-34.641-85.075-78.641l-0.018-0.293-0.213-6.4v-85.333h170.667v85.333c0 0.008 0 0.018 0 0.027 0 44.876-34.641 81.661-78.641 85.075l-0.293 0.018-6.4 0.213z" />
<glyph unicode="&#xe934;" glyph-name="icon-lock-line" d="M512 874.667c114.559-0.007 208.025-90.31 213.104-203.617l0.016-0.458 0.213-9.259v-128c70.692 0 128-57.308 128-128v0-256c0-70.692-57.308-128-128-128v0h-426.667c-70.692 0-128 57.308-128 128v0 256c0 70.692 57.308 128 128 128v0 128c0 117.821 95.513 213.333 213.333 213.333v0zM725.333 448h-426.667c-23.564 0-42.667-19.103-42.667-42.667v0-256c0-23.564 19.103-42.667 42.667-42.667v0h426.667c23.564 0 42.667 19.103 42.667 42.667v0 256c0 23.564-19.103 42.667-42.667 42.667v0zM519.509 789.12l-7.509 0.213c-0.002 0-0.005 0-0.007 0-68.051 0-123.698-53.104-127.762-120.133l-0.017-0.358-0.213-7.509v-128h256v128c0 0.002 0 0.005 0 0.007 0 68.051-53.104 123.698-120.133 127.762l-0.358 0.017z" />
<glyph unicode="&#xe935;" glyph-name="icon-logout-line" d="M213.333 661.333c0 70.692 57.308 128 128 128h213.333v-85.333h-213.333c-23.564 0-42.667-19.103-42.667-42.667v-426.667c0-23.565 19.103-42.667 42.667-42.667h213.333v-85.333h-213.333c-70.692 0-128 57.306-128 128v426.667zM652.497 606.17c15.381 15.38 39.582 16.564 56.32 3.549l4.019-3.549 128-128c15.381-15.381 16.563-39.582 3.55-56.32l-3.55-4.019-128-128c-16.661-16.661-43.678-16.661-60.339 0-15.381 15.381-16.563 39.582-3.55 56.32l3.55 4.019 55.142 55.164h-238.306c-23.565 0-42.667 19.102-42.667 42.667s19.102 42.667 42.667 42.667h238.306l-55.142 55.163c-15.381 15.381-16.563 39.583-3.55 56.32l3.55 4.020z" />
<glyph unicode="&#xe936;" glyph-name="icon-menu-horizontal-line" d="M320 490.667c35.346 0 64-28.654 64-64s-28.654-64-64-64v0c-35.346 0-64 28.654-64 64s28.654 64 64 64v0zM746.667 490.667c35.346 0 64-28.654 64-64s-28.654-64-64-64v0c-35.346 0-64 28.654-64 64s28.654 64 64 64v0zM533.333 490.667c35.346 0 64-28.654 64-64s-28.654-64-64-64v0c-35.346 0-64 28.654-64 64s28.654 64 64 64v0z" />
<glyph unicode="&#xe937;" glyph-name="icon-menu-line" d="M768 277.333c23.564 0 42.667-19.103 42.667-42.667s-19.103-42.667-42.667-42.667v0h-512c-23.564 0-42.667 19.103-42.667 42.667s19.103 42.667 42.667 42.667v0h512zM554.667 490.667c23.564 0 42.667-19.103 42.667-42.667s-19.103-42.667-42.667-42.667v0h-298.667c-23.564 0-42.667 19.103-42.667 42.667s19.103 42.667 42.667 42.667v0h298.667zM768 704c23.564 0 42.667-19.103 42.667-42.667s-19.103-42.667-42.667-42.667v0h-512c-23.564 0-42.667 19.103-42.667 42.667s19.103 42.667 42.667 42.667v0h512z" />
<glyph unicode="&#xe938;" glyph-name="icon-menu-vertical-line" d="M426.667 213.333c0 35.346 28.654 64 64 64s64-28.654 64-64v0c0-35.346-28.654-64-64-64s-64 28.654-64 64v0zM426.667 640c0 35.346 28.654 64 64 64s64-28.654 64-64v0c0-35.346-28.654-64-64-64s-64 28.654-64 64v0zM426.667 426.667c0 35.346 28.654 64 64 64s64-28.654 64-64v0c0-35.346-28.654-64-64-64s-64 28.654-64 64v0z" />
<glyph unicode="&#xe939;" glyph-name="icon-minus-line" d="M682.667 490.667c23.544-0.027 42.619-19.119 42.619-42.667 0-21.788-16.332-39.762-37.421-42.347l-0.206-0.021-4.992-0.299h-341.333c-23.564 0-42.667 19.103-42.667 42.667s19.103 42.667 42.667 42.667v0h341.333z" />
<glyph unicode="&#xe93a;" glyph-name="icon-overlay-line" d="M768 832c47.13 0 85.333-38.205 85.333-85.333v-597.333c0-47.13-38.204-85.333-85.333-85.333h-554.667c-47.128 0-85.333 38.204-85.333 85.333v597.333c0 47.128 38.205 85.333 85.333 85.333h554.667zM768 746.667h-554.667v-597.333h554.667v597.333zM469.333 661.333c-23.565 0-42.667-19.103-42.667-42.667v-341.333c0-23.565 19.102-42.667 42.667-42.667h170.667c23.565 0 42.667 19.102 42.667 42.667v341.333c0 23.564-19.102 42.667-42.667 42.667h-170.667z" />
<glyph unicode="&#xe93b;" glyph-name="icon-paste-line" d="M640 234.667c23.564 0 42.667-19.103 42.667-42.667s-19.103-42.667-42.667-42.667v0h-170.667c-23.564 0-42.667 19.103-42.667 42.667s19.103 42.667 42.667 42.667v0h170.667zM574.379 789.333c57.313-0.012 104.225-44.529 108.056-100.872l0.018-0.333 0.213-7.083v-32.853c-0.051-23.526-19.134-42.577-42.667-42.577-21.788 0-39.762 16.332-42.347 37.422l-0.021 0.206-0.299 4.949v32.853c-0.017 11.361-8.269 20.79-19.107 22.637l-0.136 0.019-3.712 0.299h-295.424c-11.361-0.017-20.79-8.269-22.637-19.107l-0.019-0.136-0.299-3.712v-295.424c0-11.392 8.32-20.907 19.243-22.656l3.712-0.299h32.853c23.526-0.051 42.577-19.134 42.577-42.667 0-21.788-16.332-39.762-37.422-42.347l-0.206-0.021-4.949-0.299h-32.853c-57.313 0.012-104.225 44.529-108.056 100.872l-0.018 0.333-0.213 7.083v295.424c0.012 57.313 44.529 104.225 100.872 108.056l0.333 0.018 7.083 0.213h295.424zM768 362.667c23.564 0 42.667-19.103 42.667-42.667s-19.103-42.667-42.667-42.667v0h-298.667c-23.564 0-42.667 19.103-42.667 42.667s19.103 42.667 42.667 42.667v0h298.667zM640 490.667c23.564 0 42.667-19.103 42.667-42.667s-19.103-42.667-42.667-42.667v0h-170.667c-23.564 0-42.667 19.103-42.667 42.667s19.103 42.667 42.667 42.667v0h170.667z" />
<glyph unicode="&#xe93c;" glyph-name="icon-paycard-line" d="M810.667 789.333c70.692 0 128-57.308 128-128v0-426.667c0-70.692-57.308-128-128-128v0h-597.333c-70.692 0-128 57.308-128 128v0 426.667c0 70.692 57.308 128 128 128v0h597.333zM170.667 448v-213.333c0-23.564 19.103-42.667 42.667-42.667v0h597.333c23.564 0 42.667 19.103 42.667 42.667v0 213.333h-682.667zM170.667 618.667h682.667v42.667c0 23.564-19.103 42.667-42.667 42.667v0h-597.333c-23.564 0-42.667-19.103-42.667-42.667v0-42.667z" />
<glyph unicode="&#xe93d;" glyph-name="icon-picture" d="M682.667 554.667c0-35.346-28.654-64-64-64s-64 28.654-64 64c0 35.346 28.654 64 64 64s64-28.654 64-64zM405.333 576l149.333-341.333h-298.667zM618.667 362.667l106.667-128h-213.333z" />
<glyph unicode="&#xe93e;" glyph-name="icon-picture-line" d="M298.667 789.333h426.667c70.694 0 128-57.308 128-128v-426.667c0-70.694-57.306-128-128-128h-426.667c-70.693 0-128 57.306-128 128v426.667c0 70.693 57.308 128 128 128zM298.667 704c-23.564 0-42.667-19.103-42.667-42.667v-271.778l128.406 144.457 296.409-342.012h44.518c23.565 0 42.667 19.102 42.667 42.667v426.667c0 23.564-19.102 42.667-42.667 42.667h-426.667zM567.893 192l-184.299 212.655-127.594-143.543v-26.445c0-23.565 19.103-42.667 42.667-42.667h269.227zM682.667 554.667c0-35.345-28.655-64-64-64s-64 28.655-64 64c0 35.346 28.655 64 64 64s64-28.654 64-64z" />
<glyph unicode="&#xe93f;" glyph-name="icon-picture-pictogram-fill" d="M256 234.667l149.333 341.333 134.656-307.755 78.677 94.421 106.667-128h-469.333zM618.667 618.667c35.346 0 64-28.654 64-64s-28.654-64-64-64c-35.346 0-64 28.654-64 64s28.654 64 64 64z" />
<glyph unicode="&#xe940;" glyph-name="icon-pipelines-line" d="M298.667 789.333c0.021 0 0.045 0 0.069 0 70.692 0 128-57.308 128-128 0-55.424-35.226-102.621-84.511-120.423l-0.892-0.281v-185.259c50.164-18.105 85.376-65.303 85.376-120.725 0-70.716-57.327-128.043-128.043-128.043s-128.043 57.327-128.043 128.043c0 55.422 35.212 102.62 84.484 120.443l0.892 0.282v185.259c-50.070 18.155-85.197 65.306-85.197 120.661 0 70.653 57.225 127.941 127.854 128.043h0.010zM298.667 277.333c-23.564 0-42.667-19.103-42.667-42.667s19.103-42.667 42.667-42.667v0c23.564 0 42.667 19.103 42.667 42.667s-19.103 42.667-42.667 42.667v0zM298.667 704c-23.564 0-42.667-19.103-42.667-42.667s19.103-42.667 42.667-42.667v0c23.564 0 42.667 19.103 42.667 42.667s-19.103 42.667-42.667 42.667v0zM751.147 529.365l0.597-0.213c17.815-5.87 32.585-16.942 42.919-31.402l0.175-0.257c8.689-12.046 14.352-26.803 15.598-42.8l0.018-0.293 0.213-6.4v-92.629c50.164-18.105 85.376-65.303 85.376-120.725 0-70.716-57.327-128.043-128.043-128.043s-128.043 57.327-128.043 128.043c0 55.422 35.212 102.62 84.484 120.443l0.892 0.282v92.672h-49.92c-18.088-50.196-65.301-85.436-120.746-85.436-70.716 0-128.043 57.327-128.043 128.043s57.327 128.043 128.043 128.043c55.4 0 102.582-35.183 120.421-84.424l0.282-0.891 49.963-0.043c8.797-0.005 17.282-1.331 25.271-3.788l-0.609 0.161 1.152-0.341zM768 277.333c-23.564 0-42.667-19.103-42.667-42.667s19.103-42.667 42.667-42.667v0c23.564 0 42.667 19.103 42.667 42.667s-19.103 42.667-42.667 42.667v0zM554.667 533.333c-23.564 0-42.667-19.103-42.667-42.667s19.103-42.667 42.667-42.667v0c23.564 0 42.667 19.103 42.667 42.667s-19.103 42.667-42.667 42.667v0z" />
<glyph unicode="&#xe941;" glyph-name="icon-play-circle-line" d="M512 832c-212.077 0-384-171.923-384-384s171.923-384 384-384v0c212.077 0 384 171.923 384 384s-171.923 384-384 384v0zM512 746.667c164.949 0 298.667-133.718 298.667-298.667s-133.718-298.667-298.667-298.667v0c-164.949 0-298.667 133.718-298.667 298.667s133.718 298.667 298.667 298.667v0zM592.085 412.501l-104.405-69.632c-6.653-4.494-14.854-7.174-23.68-7.174-23.564 0-42.667 19.103-42.667 42.667 0 0.017 0 0.035 0 0.052v-0.003 139.136c0 0.015 0 0.032 0 0.049 0 23.564 19.103 42.667 42.667 42.667 8.826 0 17.027-2.68 23.832-7.271l-0.152 0.096 104.405-69.632c11.52-7.761 18.996-20.757 18.996-35.499s-7.476-27.738-18.845-35.402l-0.152-0.096z" />
<glyph unicode="&#xe942;" glyph-name="icon-plus-line" d="M512 746.667c23.564 0 42.667-19.103 42.667-42.667v0-213.333h213.333c23.564 0 42.667-19.103 42.667-42.667s-19.103-42.667-42.667-42.667v0h-213.333v-213.333c0-23.564-19.103-42.667-42.667-42.667s-42.667 19.103-42.667 42.667v0 213.333h-213.333c-23.564 0-42.667 19.103-42.667 42.667s19.103 42.667 42.667 42.667v0h213.333v213.333c0 23.564 19.103 42.667 42.667 42.667v0z" />
<glyph unicode="&#xe943;" glyph-name="icon-radio-checked" d="M512 832c212.077 0 384-171.923 384-384s-171.923-384-384-384v0c-212.077 0-384 171.923-384 384s171.923 384 384 384v0zM512 746.667c-164.949 0-298.667-133.718-298.667-298.667s133.718-298.667 298.667-298.667v0c164.949 0 298.667 133.718 298.667 298.667s-133.718 298.667-298.667 298.667v0zM512 618.667c94.257 0 170.667-76.41 170.667-170.667s-76.41-170.667-170.667-170.667v0c-94.257 0-170.667 76.41-170.667 170.667s76.41 170.667 170.667 170.667v0z" />
<glyph unicode="&#xe944;" glyph-name="icon-refreshing-line" d="M355.541 407.723c0.1 0.001 0.219 0.001 0.337 0.001 23.564 0 42.667-19.103 42.667-42.667 0-21.924-16.536-39.986-37.817-42.394l-0.195-0.018-4.992-0.256h-77.227l65.493-61.525c42.471-42.493 101.156-68.778 165.98-68.778 101.537 0 188.012 64.487 220.703 154.739l0.517 1.634c6.038 16.727 21.776 28.467 40.256 28.467 23.581 0 42.697-19.116 42.697-42.697 0-5.101-0.894-9.992-2.535-14.527l0.094 0.297c-37.22-103.048-122.954-180.292-228.879-204.931l-2.161-0.423c-21.283-5.052-45.719-7.949-70.832-7.949-83.645 0-159.784 32.135-216.744 84.733l0.217-0.198-8.661 8.363-71.125 66.859v-86.315c-0.003-21.803-16.359-39.784-37.47-42.348l-0.205-0.020-4.992-0.299c-21.816 0.006-39.804 16.383-42.348 37.514l-0.020 0.204-0.299 4.949v185.344l0.085 2.56-0.085-2.987c0.036 9.595 3.202 18.444 8.529 25.586l-0.081-0.114c1.032 1.374 2.053 2.584 3.135 3.734l-0.021-0.022 0.341 0.341c0.856 0.918 1.747 1.768 2.685 2.565l0.045 0.038-3.072-2.944c6.703 7.084 15.753 11.888 25.9 13.162l0.212 0.022 0.853 0.085 1.92 0.128 2.219 0.085h184.875zM726.144 662.101l8.704-8.363 71.040-66.773v86.187c0 0.010 0 0.021 0 0.032 0 21.82 16.379 39.815 37.514 42.359l0.204 0.020 4.992 0.299c21.816-0.006 39.804-16.383 42.348-37.514l0.020-0.204 0.299-4.949v-185.344l-0.085-2.347 0.085 2.773c-0.033-9.65-3.232-18.546-8.613-25.711l0.080 0.111c-1.007-1.325-1.999-2.493-3.049-3.605l0.020 0.021-0.384-0.427c-0.654-0.669-1.321-1.31-2.009-1.928l-0.039-0.035 2.432 2.389c-6.675-7.125-15.74-11.94-25.909-13.164l-0.203-0.020-0.512-0.043c-0.621-0.068-1.433-0.129-2.251-0.167l-0.095-0.004-2.133-0.085h-184.875c-0.1-0.001-0.219-0.001-0.337-0.001-23.564 0-42.667 19.103-42.667 42.667 0 21.924 16.536 39.986 37.817 42.394l0.195 0.018 4.992 0.256 77.141 0.085-65.451 61.44c-42.471 42.493-101.156 68.778-165.98 68.778-101.537 0-188.012-64.487-220.703-154.739l-0.517-1.634c-6.274-16.248-21.768-27.564-39.904-27.564-23.564 0-42.667 19.103-42.667 42.667 0 4.776 0.785 9.369 2.232 13.657l-0.088-0.301c37.22 103.048 122.954 180.292 228.879 204.931l2.161 0.423c21.273 5.047 45.697 7.941 70.798 7.941 83.64 0 159.776-32.132 216.736-84.725l-0.217 0.198z" />
<glyph unicode="&#xe945;" glyph-name="icon-refresh-line" d="M355.541 407.723c0.1 0.001 0.219 0.001 0.337 0.001 23.564 0 42.667-19.103 42.667-42.667 0-21.924-16.536-39.986-37.817-42.394l-0.195-0.018-4.992-0.256h-77.227l65.493-61.525c42.471-42.493 101.156-68.778 165.98-68.778 101.537 0 188.012 64.487 220.703 154.739l0.517 1.634c6.038 16.727 21.776 28.467 40.256 28.467 23.581 0 42.697-19.116 42.697-42.697 0-5.101-0.894-9.992-2.535-14.527l0.094 0.297c-37.22-103.048-122.954-180.292-228.879-204.931l-2.161-0.423c-21.283-5.052-45.719-7.949-70.832-7.949-83.645 0-159.784 32.135-216.744 84.733l0.217-0.198-8.661 8.363-71.125 66.859v-86.315c-0.003-21.803-16.359-39.784-37.47-42.348l-0.205-0.020-4.992-0.299c-21.816 0.006-39.804 16.383-42.348 37.514l-0.020 0.204-0.299 4.949v185.344l0.085 2.56-0.085-2.987c0.036 9.595 3.202 18.444 8.529 25.586l-0.081-0.114c1.032 1.374 2.053 2.584 3.135 3.734l-0.021-0.022 0.341 0.341c0.856 0.918 1.747 1.768 2.685 2.565l0.045 0.038-3.072-2.944c6.703 7.084 15.753 11.888 25.9 13.162l0.212 0.022 0.853 0.085 1.92 0.128 2.219 0.085h184.875zM726.144 662.101l8.704-8.363 71.040-66.773v86.187c0 0.010 0 0.021 0 0.032 0 21.82 16.379 39.815 37.514 42.359l0.204 0.020 4.992 0.299c21.816-0.006 39.804-16.383 42.348-37.514l0.020-0.204 0.299-4.949v-185.344l-0.085-2.347 0.085 2.773c-0.033-9.65-3.232-18.546-8.613-25.711l0.080 0.111c-1.007-1.325-1.999-2.493-3.049-3.605l0.020 0.021-0.384-0.427c-0.654-0.669-1.321-1.31-2.009-1.928l-0.039-0.035 2.432 2.389c-6.675-7.125-15.74-11.94-25.909-13.164l-0.203-0.020-0.512-0.043c-0.621-0.068-1.433-0.129-2.251-0.167l-0.095-0.004-2.133-0.085h-184.875c-0.1-0.001-0.219-0.001-0.337-0.001-23.564 0-42.667 19.103-42.667 42.667 0 21.924 16.536 39.986 37.817 42.394l0.195 0.018 4.992 0.256 77.141 0.085-65.451 61.44c-42.471 42.493-101.156 68.778-165.98 68.778-101.537 0-188.012-64.487-220.703-154.739l-0.517-1.634c-6.274-16.248-21.768-27.564-39.904-27.564-23.564 0-42.667 19.103-42.667 42.667 0 4.776 0.785 9.369 2.232 13.657l-0.088-0.301c37.22 103.048 122.954 180.292 228.879 204.931l2.161 0.423c21.273 5.047 45.697 7.941 70.798 7.941 83.64 0 159.776-32.132 216.736-84.725l-0.217 0.198z" />
<glyph unicode="&#xe946;" glyph-name="icon-reload-line" d="M874.667 554.667c0-58.91-47.756-106.667-106.667-106.667s-106.667 47.756-106.667 106.667c0 58.91 47.756 106.667 106.667 106.667s106.667-47.756 106.667-106.667z" />
<glyph unicode="&#xe947;" glyph-name="icon-search-line" d="M328.405 652.928c38.617 38.674 91.997 62.599 150.964 62.599 117.821 0 213.333-95.513 213.333-213.333 0-43.846-13.227-84.602-35.91-118.497l0.487 0.773 123.648-123.733c7.41-7.665 11.977-18.12 11.977-29.641 0-23.564-19.103-42.667-42.667-42.667-11.521 0-21.976 4.567-29.653 11.989l-123.721 123.679c-32.957-21.873-73.434-34.898-116.953-34.898-117.868 0-213.419 95.551-213.419 213.419 0 58.637 23.648 111.751 61.927 150.325l-0.013-0.013zM388.693 592.64c-23.165-23.165-37.494-55.168-37.494-90.517 0-70.698 57.312-128.011 128.011-128.011 35.349 0 67.352 14.328 90.517 37.494v0c23.165 23.165 37.494 55.168 37.494 90.517 0 70.698-57.312 128.011-128.011 128.011-35.349 0-67.352-14.328-90.517-37.494v0z" />
<glyph unicode="&#xe948;" glyph-name="icon-settings-line" d="M512 832c53.205 0 99.413-29.739 123.008-73.472l2.645-5.248c11.776 3.968 23.765 6.4 36.053 7.168l9.216 0.341c0.038 0 0.083 0 0.128 0 77.078 0 139.563-62.484 139.563-139.563 0-0.045 0-0.090 0-0.135v0.007c0-15.445-2.56-30.635-7.467-44.971l-0.469-1.237 8.96-4.523c41.168-22.973 69.222-65.13 72.089-114.053l0.018-0.379 0.256-7.936c0-53.205-29.739-99.413-73.472-123.008l-5.291-2.645c4.011-11.776 6.4-23.765 7.253-36.053l0.299-9.216c0-0.040 0-0.088 0-0.136 0-77.078-62.484-139.563-139.563-139.563-12.946 0-25.48 1.763-37.376 5.061l0.981-0.232-8.107 2.432-4.181-8.32c-22.973-41.168-65.13-69.222-114.053-72.089l-0.379-0.018-7.979-0.213c-0.018 0-0.039 0-0.061 0-52.878 0-98.89 29.399-122.582 72.743l-0.365 0.729-3.029 6.016-2.091-0.853c-10.507-3.661-22.682-6.185-35.311-7.058l-0.443-0.025-9.216-0.341c-0.040 0-0.088 0-0.136 0-77.078 0-139.563 62.484-139.563 139.563 0 12.946 1.763 25.48 5.061 37.376l-0.232-0.981 2.389 8.107-8.277 4.181c-41.168 22.973-69.222 65.13-72.089 114.053l-0.018 0.379-0.171 7.979c0 53.205 29.739 99.413 73.472 123.008l5.973 3.029-0.768 2.091c-3.703 10.512-6.243 22.688-7.102 35.325l-0.023 0.429-0.341 9.216c0 0.025 0 0.055 0 0.085 0 77.078 62.484 139.563 139.563 139.563 0.045 0 0.090 0 0.135 0h-0.007c15.445 0 30.635-2.56 44.971-7.467l1.237-0.427 4.523 8.96c22.973 41.168 65.13 69.222 114.053 72.089l0.379 0.018zM512 746.667c-29.995 0-54.315-24.32-54.315-54.315v-4.608c-0.089-18.275-11.106-33.955-26.848-40.848l-0.288-0.112h-2.176c-5.322-2.408-11.539-3.812-18.083-3.812-12.196 0-23.254 4.874-31.333 12.78l0.008-0.008-1.621 1.579c-9.831 9.837-23.416 15.921-38.421 15.921-30.001 0-54.321-24.32-54.321-54.321 0-14.995 6.076-28.571 15.9-38.4v0l1.621-1.664c12.8-13.099 16.341-32.64 8.96-49.408-6.364-16.94-22.235-28.863-40.949-29.311l-0.054-0.001h-2.432c-29.997 0-54.315-24.318-54.315-54.315s24.318-54.315 54.315-54.315h4.608c17.835-0.043 33.963-10.709 40.96-27.136 7.424-16.768 3.883-36.309-8.96-49.408l-1.579-1.621c-9.837-9.831-15.921-23.416-15.921-38.421 0-30.001 24.32-54.321 54.321-54.321 14.995 0 28.571 6.076 38.4 15.9v0l1.664 1.621c8.070 7.898 19.128 12.772 31.325 12.772 6.545 0 12.762-1.403 18.366-3.926l-0.283 0.114c17.28-6.357 28.885-22.613 29.312-41.003v-2.432c0-29.997 24.318-54.315 54.315-54.315s54.315 24.318 54.315 54.315v4.608c0.089 18.275 11.106 33.955 26.848 40.848l0.288 0.112c5.322 2.408 11.539 3.812 18.083 3.812 12.196 0 23.254-4.874 31.333-12.78l-0.008 0.008 1.621-1.579c9.831-9.837 23.416-15.921 38.421-15.921 30.001 0 54.321 24.32 54.321 54.321 0 14.995-6.076 28.571-15.9 38.4v0l-1.621 1.664c-7.898 8.070-12.772 19.128-12.772 31.325 0 6.545 1.403 12.762 3.926 18.366l-0.114-0.283c7.011 16.043 22.711 27.065 40.994 27.136h2.441c29.997 0 54.315 24.318 54.315 54.315s-24.318 54.315-54.315 54.315h-4.608c-18.275 0.089-33.955 11.106-40.848 26.848l-0.112 0.288v2.176c-2.408 5.322-3.812 11.539-3.812 18.083 0 12.196 4.874 23.254 12.78 31.333l-0.008-0.008 1.579 1.621c9.837 9.831 15.921 23.416 15.921 38.421 0 30.001-24.32 54.321-54.321 54.321-14.995 0-28.571-6.076-38.4-15.9v0l-1.664-1.621c-8.070-7.898-19.128-12.772-31.325-12.772-6.545 0-12.762 1.403-18.366 3.926l0.283-0.114c-16.043 7.011-27.065 22.711-27.136 40.994v2.441c0 29.995-24.32 54.315-54.315 54.315zM512 576c70.692 0 128-57.308 128-128s-57.308-128-128-128v0c-70.692 0-128 57.308-128 128s57.308 128 128 128v0zM512 490.667c-23.564 0-42.667-19.103-42.667-42.667s19.103-42.667 42.667-42.667v0c23.564 0 42.667 19.103 42.667 42.667s-19.103 42.667-42.667 42.667v0z" />
<glyph unicode="&#xe949;" d="M512 789.333c34.133 0 64-29.867 64-64 0-21.333 8.533-42.667 29.867-46.933 17.067-8.533 42.667-4.267 55.467 8.533 11.103 19.936 32.053 33.199 56.101 33.199 35.346 0 64-28.654 64-64 0-22.951-12.081-43.080-30.23-54.375l-0.271-0.157c-17.067-17.067-21.333-42.667-12.8-59.733 8.533-21.333 25.6-29.867 46.933-29.867h4.267c35.346 0 64-28.654 64-64s-28.654-64-64-64v0c-21.333 0-42.667-8.533-46.933-29.867-8.533-17.067-4.267-42.667 8.533-55.467 19.936-11.103 33.199-32.053 33.199-56.101 0-35.346-28.654-64-64-64-22.951 0-43.080 12.081-54.375 30.23l-0.157 0.271c-17.067 17.067-42.667 21.333-59.733 12.8s-29.867-25.6-29.867-46.933v-4.267c1.355-4.916 2.133-10.56 2.133-16.386 0-35.346-28.654-64-64-64s-64 28.654-64 64c0 5.826 0.779 11.471 2.237 16.835l-0.104-0.449c0 21.333-12.8 42.667-34.133 46.933-17.067 8.533-42.667 4.267-55.467-8.533-11.103-19.936-32.053-33.199-56.101-33.199-35.346 0-64 28.654-64 64 0 22.951 12.081 43.080 30.23 54.375l0.271 0.157c17.067 17.067 21.333 42.667 12.8 59.733s-25.6 29.867-46.933 29.867h-4.267c-27.628 7.495-47.614 32.347-47.614 61.867s19.986 54.372 47.165 61.763l0.449 0.104c21.333 0 42.667 12.8 46.933 34.133 8.533 17.067 4.267 42.667-8.533 55.467-19.936 11.103-33.199 32.053-33.199 56.101 0 35.346 28.654 64 64 64 22.951 0 43.080-12.081 54.375-30.23l0.157-0.271c17.067-17.067 42.667-21.333 59.733-12.8 21.333 8.533 29.867 25.6 29.867 46.933v4.267c0 34.133 29.867 64 64 64zM512 618.667c-94.257 0-170.667-76.41-170.667-170.667s76.41-170.667 170.667-170.667v0c94.257 0 170.667 76.41 170.667 170.667s-76.41 170.667-170.667 170.667v0z" />
<glyph unicode="&#xe94a;" d="M597.333 448c0-47.128-38.205-85.333-85.333-85.333s-85.333 38.205-85.333 85.333c0 47.128 38.205 85.333 85.333 85.333s85.333-38.205 85.333-85.333z" />
<glyph unicode="&#xe94b;" glyph-name="icon-share-line" d="M768 874.667c0 0 0 0 0.001 0 94.257 0 170.667-76.41 170.667-170.667s-76.41-170.667-170.667-170.667c-49.855 0-94.718 21.377-125.921 55.466l-0.117 0.129-215.296-123.008v-35.84l215.296-123.008c31.315 34.165 76.144 55.507 125.958 55.507 94.257 0 170.667-76.41 170.667-170.667s-76.41-170.667-170.667-170.667c-94.257 0-170.667 76.41-170.667 170.667 0 14.096 1.709 27.794 4.931 40.896l-0.244-1.171-206.421 117.973c-31.292-43.966-82.070-72.299-139.466-72.299-94.257 0-170.667 76.41-170.667 170.667s76.41 170.667 170.667 170.667c57.396 0 108.174-28.333 139.112-71.775l0.354-0.523 206.507 118.016c-2.965 11.905-4.667 25.573-4.667 39.637 0 94.247 76.395 170.651 170.638 170.667h0.002zM768 277.333c-47.128 0-85.333-38.205-85.333-85.333s38.205-85.333 85.333-85.333v0c47.128 0 85.333 38.205 85.333 85.333s-38.205 85.333-85.333 85.333v0zM256 533.333c-47.128 0-85.333-38.205-85.333-85.333s38.205-85.333 85.333-85.333v0c47.128 0 85.333 38.205 85.333 85.333s-38.205 85.333-85.333 85.333v0zM768 789.333c-47.128 0-85.333-38.205-85.333-85.333s38.205-85.333 85.333-85.333v0c47.128 0 85.333 38.205 85.333 85.333s-38.205 85.333-85.333 85.333v0z" />
<glyph unicode="&#xe94c;" glyph-name="icon-sidebar-line" d="M768 832c47.128 0 85.333-38.205 85.333-85.333v0-597.333c0-47.128-38.205-85.333-85.333-85.333v0h-554.667c-47.128 0-85.333 38.205-85.333 85.333v0 597.333c0 47.128 38.205 85.333 85.333 85.333v0h554.667zM426.667 746.667h-213.333v-597.333h213.333v597.333zM768 746.667h-256v-597.333h256v597.333zM609.707 569.301l3.243-2.688 102.4-96c12.288-11.52 13.227-29.653 2.816-42.24l-2.816-2.987-102.4-96c-6.339-5.82-14.827-9.388-24.149-9.388s-17.811 3.567-24.175 9.412l0.026-0.024c-6.141 5.608-9.978 13.648-9.978 22.585 0 7.507 2.708 14.381 7.2 19.7l-0.037-0.045 2.816 2.987 78.251 73.387-78.251 73.387c-6.141 5.608-9.978 13.648-9.978 22.585 0 7.507 2.708 14.381 7.2 19.7l-0.037-0.045 2.816 2.987c6.351 5.823 14.852 9.391 24.186 9.391 7.832 0 15.078-2.512 20.975-6.775l-0.105 0.072z" />
<glyph unicode="&#xe94d;" glyph-name="icon-star-full-fill" d="M527.275 700.331c6.827-3.413 12.373-9.045 15.701-16l60.373-124.928 135.083-20.053c16.871-2.785 29.581-17.264 29.581-34.712 0-1.859-0.144-3.684-0.422-5.464l0.025 0.198c-1.148-7.949-4.78-14.895-10.069-20.181v0l-97.707-97.28 23.040-137.301c0.34-1.837 0.534-3.951 0.534-6.11 0-17.14-12.25-31.419-28.473-34.558l-0.221-0.036c-1.761-0.324-3.787-0.509-5.856-0.509-5.888 0-11.426 1.5-16.251 4.139l0.177-0.089-120.789 64.853-120.789-64.853c-4.659-2.536-10.203-4.028-16.096-4.028-13.28 0-24.792 7.575-30.449 18.64l-0.090 0.193c-2.513 4.779-3.988 10.442-3.988 16.45 0 2.086 0.178 4.131 0.519 6.12l-0.030-0.213 23.040 137.344-97.707 97.28c-6.426 6.469-10.398 15.383-10.398 25.225 0 9.54 3.732 18.209 9.816 24.625l-0.015-0.016c5.111 5.366 11.92 9.074 19.562 10.258l0.192 0.025 135.040 20.053 60.416 124.928c5.61 11.688 17.352 19.614 30.945 19.614 5.579 0 10.846-1.335 15.5-3.703l-0.194 0.090z" />
<glyph unicode="&#xe94e;" d="M1024 448c0-282.77-229.23-512-512-512s-512 229.23-512 512c0 282.77 229.23 512 512 512s512-229.23 512-512z" />
<glyph unicode="&#xe94f;" d="M512 320l-73.952-38.879c-20.857-10.965-46.655-2.946-57.62 17.911-4.366 8.306-5.873 17.819-4.287 27.067l14.123 82.346-59.828 58.318c-16.874 16.448-17.219 43.461-0.771 60.335 6.55 6.719 15.132 11.092 24.418 12.441l82.68 12.014 36.976 74.921c10.429 21.131 36.013 29.807 57.144 19.378 8.414-4.153 15.225-10.964 19.378-19.378l36.976-74.921 82.68-12.014c23.319-3.388 39.476-25.039 36.088-48.359-1.349-9.286-5.722-17.868-12.441-24.418l-59.828-58.318 14.123-82.346c3.983-23.225-11.615-45.282-34.84-49.265-9.248-1.586-18.762-0.079-27.067 4.287l-73.952 38.879z" />
<glyph unicode="&#xe950;" d="M682.667 448c0-94.257-76.41-170.667-170.667-170.667s-170.667 76.41-170.667 170.667c0 94.257 76.41 170.667 170.667 170.667s170.667-76.41 170.667-170.667z" />
<glyph unicode="&#xe951;" d="M512 832c212.077 0 384-171.923 384-384s-171.923-384-384-384v0c-212.077 0-384 171.923-384 384s171.923 384 384 384v0zM512 746.667c-164.949 0-298.667-133.718-298.667-298.667s133.718-298.667 298.667-298.667v0c164.949 0 298.667 133.718 298.667 298.667s-133.718 298.667-298.667 298.667v0z" />
<glyph unicode="&#xe952;" d="M1024 448c0-282.77-229.23-512-512-512s-512 229.23-512 512c0 282.77 229.23 512 512 512s512-229.23 512-512z" />
<glyph unicode="&#xe953;" d="M328.405 388.693c-7.729 7.724-12.51 18.397-12.51 30.187 0 23.569 19.106 42.675 42.675 42.675 11.779 0 22.444-4.772 30.166-12.489l90.453-90.453 181.077 180.949c7.665 7.41 18.12 11.977 29.641 11.977 23.564 0 42.667-19.103 42.667-42.667 0-11.521-4.567-21.976-11.989-29.653l-210.676-210.633c-7.768-8.026-18.639-13.008-30.673-13.008-11.782 0-22.449 4.776-30.17 12.497l-120.661 120.619z" />
<glyph unicode="&#xe954;" d="M298.667 789.333h426.667c70.692 0 128-57.308 128-128v-426.667c0-70.692-57.308-128-128-128h-426.667c-70.692 0-128 57.308-128 128v426.667c0 70.692 57.308 128 128 128z" />
<glyph unicode="&#xe955;" d="M666.069 564.48l0.341-0.384c15.787-15.957 15.787-41.685 0-57.685l-170.837-172.971c-5.566-5.667-12.803-9.675-20.913-11.224l-0.249-0.040-4.693-0.555-4.736-0.043c-10.365 0.554-19.6 4.985-26.363 11.856l-0.005 0.005-85.461 86.485c-7.32 7.409-11.842 17.598-11.842 28.843s4.522 21.433 11.846 28.847l-0.004-0.004c7.26 7.351 17.338 11.904 28.48 11.904 10.972 0 20.913-4.415 28.142-11.566l0.337-0.337 56.96-57.643 142.379 144.128c7.26 7.351 17.338 11.904 28.48 11.904 10.972 0 20.913-4.415 28.142-11.566l-0.004 0.004z" />
<glyph unicode="&#xe956;" glyph-name="icon-sync-line" d="M652.757 783.829l3.712-3.328 130.731-130.731c7.727-7.722 12.507-18.393 12.507-30.18 0-10.026-3.458-19.243-9.246-26.526l0.067 0.087-3.328-3.712-130.731-130.731c-7.746-7.879-18.519-12.761-30.432-12.761-23.564 0-42.667 19.103-42.667 42.667 0 10.149 3.543 19.47 9.46 26.794l-0.063-0.081 3.328 3.712 56.96 57.003h-292.736c-33.493 0-58.368-18.688-61.355-38.699l-0.299-4.011v-42.667c-0.051-23.526-19.134-42.577-42.667-42.577-21.788 0-39.762 16.332-42.347 37.422l-0.021 0.206-0.299 4.949v42.667c0 70.272 62.933 124.16 138.795 127.829l8.192 0.171 294.571 0.043-58.709 58.795c-7.756 7.727-12.555 18.417-12.555 30.228 0 10.004 3.443 19.204 9.209 26.48l-0.068-0.089 3.328 3.712c7.722 7.727 18.393 12.507 30.18 12.507 10.026 0 19.243-3.458 26.526-9.246l-0.087 0.067zM725.333 405.333c0.011 0 0.024 0 0.037 0 21.805 0 39.79-16.357 42.353-37.47l0.020-0.205 0.256-4.992v-42.667c0-70.272-62.891-124.16-138.752-127.787l-8.192-0.213h-305.067l62.635-62.635c7.727-7.722 12.507-18.393 12.507-30.18 0-10.026-3.458-19.243-9.246-26.526l0.067 0.087-3.328-3.712c-7.722-7.727-18.393-12.507-30.18-12.507-10.026 0-19.243 3.458-26.526 9.246l0.087-0.067-3.712 3.328-130.731 130.731c-7.727 7.722-12.507 18.393-12.507 30.18 0 10.026 3.458 19.243 9.246 26.526l-0.067-0.087 3.328 3.712 130.731 130.731c7.725 7.747 18.409 12.539 30.212 12.539 23.564 0 42.667-19.103 42.667-42.667 0-10.049-3.474-19.287-9.287-26.578l0.066 0.086-3.328-3.712-53.205-53.163h295.637c33.493 0 58.368 18.645 61.312 38.656l0.299 4.011v42.667c0 23.564 19.103 42.667 42.667 42.667v0z" />
<glyph unicode="&#xe957;" glyph-name="icon-table-line" d="M768 789.333c47.128 0 85.333-38.205 85.333-85.333v0-512c0-47.128-38.205-85.333-85.333-85.333v0h-512c-47.128 0-85.333 38.205-85.333 85.333v0 512c0 47.128 38.205 85.333 85.333 85.333v0h512zM384 490.667h-128v-298.667h128v298.667zM768 490.667h-298.667v-298.667h298.667v298.667zM256 704v-128h128v128h-128zM469.333 576h298.667v128h-298.667v-128z" />
<glyph unicode="&#xe958;" glyph-name="icon-tag-line" d="M213.333 789.333h387.413c38.807-0.001 73.58-17.272 97.053-44.547l0.141-0.168 230.443-268.843c6.389-7.416 10.279-17.141 10.279-27.776s-3.891-20.36-10.326-27.832l0.047 0.056-230.443-268.843c-23.614-27.443-58.387-44.713-97.195-44.715h-387.413c-70.692 0-128 57.308-128 128v0 426.667c0 70.692 57.308 128 128 128v0zM839.808 448l-206.677 241.067c-7.864 9.155-19.449 14.921-32.382 14.933h-387.415c-23.564 0-42.667-19.103-42.667-42.667v0-426.667c0-23.564 19.103-42.667 42.667-42.667v0h387.413c0.001 0 0.002 0 0.003 0 12.949 0 24.551 5.769 32.376 14.877l0.048 0.057 206.592 241.067z" />
<glyph unicode="&#xe959;" glyph-name="icon-unlock-fill" d="M682.667 490.667c47.128 0 85.333-38.205 85.333-85.333v-170.667c0-47.128-38.205-85.333-85.333-85.333h-341.333c-47.128 0-85.333 38.205-85.333 85.333v170.667c0 47.128 38.205 85.333 85.333 85.333h341.333zM512 362.667c-23.564 0-42.667-19.103-42.667-42.667s19.103-42.667 42.667-42.667c23.564 0 42.667 19.103 42.667 42.667s-19.103 42.667-42.667 42.667zM533.051 746.667c78.487 0 142.114-63.627 142.114-142.114 0-3.442-0.125-6.883-0.375-10.317-1.711-23.502-22.149-41.167-45.651-39.457-21.823 1.588-38.614 19.325-39.532 40.668l0.225 9.106c0 29.514-22.519 53.769-51.312 56.521l-5.468 0.26h-21.051c-44.986 0-81.842-34.811-85.099-78.965l-0.234-6.369v-85.333c0-23.564-19.103-42.667-42.667-42.667-21.881 0-39.915 16.471-42.38 37.691l-0.287 4.976v85.333c0 91.4 71.849 166.019 162.149 170.458l8.518 0.209h21.051z" />
<glyph unicode="&#xe95a;" glyph-name="icon-unlock-line" d="M512 874.667c114.559-0.007 208.025-90.31 213.104-203.617l0.016-0.458 0.213-9.259v-128c70.692 0 128-57.308 128-128v0-256c0-70.692-57.308-128-128-128v0h-426.667c-70.692 0-128 57.308-128 128v0 256c0 70.692 57.308 128 128 128v0h341.333v128c0 0.002 0 0.005 0 0.007 0 68.051-53.104 123.698-120.133 127.762l-0.358 0.017-7.509 0.213c-70.692 0-128-57.308-128-128v0c0-23.564-19.103-42.667-42.667-42.667s-42.667 19.103-42.667 42.667v0c0 117.821 95.513 213.333 213.333 213.333v0zM725.333 448h-426.667c-23.564 0-42.667-19.103-42.667-42.667v0-256c0-23.564 19.103-42.667 42.667-42.667v0h426.667c23.564 0 42.667 19.103 42.667 42.667v0 256c0 23.564-19.103 42.667-42.667 42.667v0z" />
<glyph unicode="&#xe95b;" d="M1024 448c0-282.77-229.23-512-512-512s-512 229.23-512 512c0 282.77 229.23 512 512 512s512-229.23 512-512z" />
<glyph unicode="&#xe95c;" d="M426.667 561.778c0-47.128 38.205-85.333 85.333-85.333s85.333 38.205 85.333 85.333c0 47.128-38.205 85.333-85.333 85.333s-85.333-38.205-85.333-85.333z" />
<glyph unicode="&#xe95d;" d="M512 448c89.768 0 162.54-72.771 162.54-162.54v-65.016h-325.079v65.016c0 89.768 72.771 162.54 162.54 162.54z" />
<glyph unicode="&#xe95e;" glyph-name="icon-view-line" d="M512 746.667c109.824 0 204.032-51.029 282.325-133.077 44.757-46.848 75.349-93.44 92.373-126.891 5.849-11.256 9.279-24.577 9.279-38.699s-3.43-27.443-9.503-39.174l0.224 0.476c-17.024-33.451-47.616-80.043-92.373-126.891-78.293-82.048-172.501-133.077-282.325-133.077s-204.032 51.029-282.325 133.077c-44.757 46.848-75.349 93.44-92.373 126.891-5.849 11.256-9.279 24.577-9.279 38.699s3.43 27.443 9.503 39.174l-0.224-0.476c17.024 33.451 47.616 80.043 92.373 126.891 78.293 82.048 172.501 133.077 282.325 133.077zM512 661.333c-116.608 0-202.581-80.341-251.605-142.421l-10.24-13.44-4.693-6.4-8.448-12.117-7.168-10.923-5.888-9.429-6.443-10.965-4.181-7.637 8.107-14.507 8.405-13.525 7.168-10.923 8.448-12.075c1.493-2.133 3.072-4.267 4.693-6.443l10.24-13.44c49.024-62.080 134.997-142.421 251.605-142.421s202.581 80.341 251.605 142.421l10.24 13.44 4.693 6.4 8.448 12.117 7.168 10.923 5.888 9.429 6.443 10.965 4.181 7.637-8.107 14.507-8.405 13.525-7.168 10.923-8.448 12.075c-1.493 2.133-3.072 4.267-4.693 6.443l-10.24 13.44c-49.024 62.080-134.997 142.421-251.605 142.421zM512 576c70.692 0 128-57.308 128-128s-57.308-128-128-128v0c-70.692 0-128 57.308-128 128s57.308 128 128 128v0zM512 490.667c-23.564 0-42.667-19.103-42.667-42.667s19.103-42.667 42.667-42.667v0c23.564 0 42.667 19.103 42.667 42.667s-19.103 42.667-42.667 42.667v0z" />
<glyph unicode="&#xe95f;" glyph-name="icon-view-off-line" d="M843.861 779.861c7.718-7.721 12.492-18.386 12.492-30.165s-4.774-22.445-12.492-30.165l-78.080-78.080c9.728-8.832 19.243-18.133 28.587-27.861 44.715-46.848 75.307-93.44 92.331-126.891 5.849-11.256 9.279-24.577 9.279-38.699s-3.43-27.443-9.503-39.174l0.224 0.476c-17.024-33.451-47.616-80.043-92.373-126.891-78.293-82.048-172.501-133.077-282.325-133.077-67.584 0-129.28 19.328-184.96 53.333l-86.571-86.528c-7.769-8.036-18.647-13.026-30.69-13.026-23.564 0-42.667 19.103-42.667 42.667 0 12.043 4.989 22.92 13.014 30.678l78.092 78.092c-10.080 9.158-19.399 18.246-28.388 27.652l-0.198 0.209c-44.715 46.848-75.307 93.44-92.331 126.891-5.849 11.256-9.279 24.577-9.279 38.699s3.43 27.443 9.503 39.174l-0.224-0.476c17.024 33.451 47.616 80.043 92.373 126.891 78.293 82.048 172.501 133.077 282.325 133.077 67.584 0 129.28-19.328 184.96-53.333l86.571 86.528c7.721 7.718 18.386 12.492 30.165 12.492s22.445-4.774 30.165-12.492v0zM705.365 580.949l-77.824-77.781c7.886-16.136 12.497-35.111 12.497-55.163 0-70.692-57.308-128-128-128-20.052 0-39.027 4.611-55.923 12.83l0.76-0.334-67.029-66.987c35.797-18.603 76.629-30.848 122.155-30.848 112.469 0 196.395 74.667 246.187 135.68l5.419 6.741 10.24 13.44 2.389 3.243 2.304 3.2 8.448 12.075 7.168 10.923 5.888 9.429 6.443 10.965 4.181 7.637-8.107 14.507-8.405 13.525-7.168 10.923-8.448 12.075-2.304 3.2-2.347 3.243-10.283 13.44c-17.999 22.83-37.081 43.116-57.779 61.632l-0.461 0.405zM512 661.333c-112.469 0-196.395-74.667-246.187-135.68l-5.419-6.741-10.24-13.44-2.389-3.243-2.304-3.2-8.448-12.075-7.168-10.923-5.888-9.429-6.443-10.965-4.181-7.637 8.107-14.507 8.405-13.525 7.168-10.923 8.448-12.075 2.304-3.2 2.347-3.243 10.283-13.44c15.701-19.925 35.2-41.685 58.283-62.080l77.824 77.781c-7.919 16.165-12.55 35.179-12.55 55.274 0 70.692 57.308 128 128 128 20.073 0 39.066-4.62 55.975-12.856l-0.759 0.334 66.987 66.987c-35.797 18.517-76.629 30.805-122.155 30.805z" />
<glyph unicode="&#xe960;" glyph-name="icon-warning-fill" d="M552.149 683.307c15.023-8.119 27.038-20.134 34.934-34.707l0.223-0.451 199.083-373.333c6.32-11.623 10.035-25.452 10.035-40.149 0-47.116-38.186-85.314-85.297-85.333h-398.253c-47.114 0.019-85.299 38.217-85.299 85.333 0 14.697 3.716 28.526 10.258 40.6l-0.223-0.45 199.083 373.333c14.66 27.098 42.868 45.194 75.304 45.194 14.698 0 28.529-3.716 40.603-10.26l-0.45 0.223zM512 320c-23.564 0-42.667-19.103-42.667-42.667s19.103-42.667 42.667-42.667v0c23.564 0 42.667 19.103 42.667 42.667s-19.103 42.667-42.667 42.667v0zM512 576c-23.564 0-42.667-19.103-42.667-42.667v0-128c0-23.564 19.103-42.667 42.667-42.667s42.667 19.103 42.667 42.667v0 128c0 23.564-19.103 42.667-42.667 42.667v0z" />
<glyph unicode="&#xe961;" glyph-name="icon-window-new-line" d="M572.339 723.818c0 21.751 16.277 39.701 37.316 42.334l5.35 0.332h181.022c21.751 0 39.701-16.277 42.334-37.315l0.333-5.352v-181.019c0-23.562-19.106-42.668-42.667-42.668-21.751 0-39.701 16.277-42.338 37.316l-0.329 5.352-0.013 70.677-173.295-173.292c-14.020-14.020-38.895-11.878-55.556 4.783-15.471 15.471-18.423 38.025-7.539 52.395l2.756 3.162 180.612 180.614-85.321 0.015c-21.751 0-39.701 16.276-42.334 37.315l-0.333 5.352zM256 618.667c0 23.564 19.103 42.667 42.667 42.667h170.667v85.333h-170.667c-70.692 0-128-57.308-128-128v-384c0-70.694 57.308-128 128-128h384c70.673 0 128 57.259 128 127.97v170.697h-85.333v-170.697c0-23.543-19.085-42.637-42.667-42.637h-384c-23.564 0-42.667 19.102-42.667 42.667v384z" />
<glyph unicode="&#xe962;" glyph-name="icon-window-new-reverse-line" d="M256 618.667c0 23.564 19.103 42.667 42.667 42.667h170.667v85.333h-170.667c-70.692 0-128-57.308-128-128v-384c0-70.694 57.308-128 128-128h384c70.673 0 128 57.259 128 127.97v170.697h-85.333v-170.697c0-23.543-19.085-42.637-42.667-42.637h-384c-23.564 0-42.667 19.102-42.667 42.667v384zM728.367 716.498l-259.034-259.030v75.867c0 23.564-19.102 42.667-42.667 42.667s-42.667-19.103-42.667-42.667v-170.668c0-23.565 19.103-42.667 42.667-42.667h170.667c23.565 0 42.667 19.102 42.667 42.667s-19.102 42.667-42.667 42.667h-59.452l250.825 250.825 3.315 3.721c13.261 16.748 12.156 41.146-3.315 56.618-16.661 16.663-43.678 16.663-60.339 0z" />
</font>
</defs>
</svg>
